<?xml version="1.0" standalone="no"?>
<!DOCTYPE svg PUBLIC "-//W3C//DTD SVG 1.1//EN" "http://www.w3.org/Graphics/SVG/1.1/DTD/svg11.dtd" >
<svg xmlns="http://www.w3.org/2000/svg">
<metadata>Generated by IcoMoon</metadata>
<defs>
<font id="iconfont" horiz-adv-x="1024">
<font-face units-per-em="1024" ascent="960" descent="-64" />
<missing-glyph horiz-adv-x="1024" />
<glyph unicode="&#x20;" horiz-adv-x="512" d="" />
<glyph unicode="&#x2600;" glyph-name="uniF0001" d="M512 896c-141.384 0-269.376-57.322-362.032-149.978l-149.968 149.978v-384h384l-143.532 143.522c69.496 69.494 165.49 112.478 271.532 112.478 212.068 0 384-171.926 384-384 0-114.694-50.294-217.636-130.018-288l84.664-96c106.304 93.818 173.354 231.076 173.354 384 0 282.77-229.23 512-512 512z" />
<glyph unicode="&#x2601;" glyph-name="uniF0002" d="M0 384c0-152.924 67.050-290.184 173.35-384l84.666 96c-79.726 70.364-130.016 173.302-130.016 288 0 212.074 171.93 384 384 384 106.040 0 202.038-42.986 271.528-112.478l-143.528-143.522h384v384l-149.97-149.978c-92.654 92.656-220.644 149.978-362.030 149.978-282.77 0-512-229.23-512-512z" />
<glyph unicode="&#x2602;" glyph-name="uniF0003" d="M923.018 378.738q0-87.428-32.928-164.634t-90.266-136.818-135.114-97.644-167.474-45.984q-5.676-1.134-10.218-1.702t-10.218-0.568h-196.426q-19.3 0-38.038 6.812t-33.496 18.732-24.412 27.818-9.652 32.928 9.082 32.928 23.842 27.25 32.926 18.168 37.468 6.812l175.988-1.134q60.178 0 113.54 22.14t93.102 59.61 62.446 87.996 22.708 108.432q0 54.5-20.438 102.188t-56.202 85.154-83.452 60.744-103.322 28.954q-2.272 0-2.838-0.568t-2.838-0.568h-180.53v-89.696q0-19.302-15.328-28.384t-49.39 11.356q-9.082 5.676-28.954 19.87t-46.552 33.496-56.202 40.874l-56.772 43.144q-17.030 13.626-29.522 24.412t-12.49 26.682q0 13.626 14.192 28.384t32.36 29.522q20.438 17.030 48.824 39.738t56.202 44.282 49.956 39.172 31.224 24.412q27.25 19.302 44.282 7.948t18.168-34.062v-90.834h180.53q5.676 0 11.924-1.134t11.924-2.272q88.562-9.084 165.77-46.552t134.548-97.078 89.698-136.818 32.36-163.5z" />
<glyph unicode="&#x2603;" glyph-name="uniF0004" d="M51.024 381.008q0 86.292 32.36 163.5t89.698 136.818 134.546 97.078 165.77 46.552q11.356 3.406 23.844 3.406h180.53v90.834q1.134 22.708 18.168 34.062t44.282-7.948q7.948-5.676 30.656-23.276t50.526-39.738 56.202-44.85 48.822-39.74q18.168-14.76 31.79-29.522t13.626-28.384q0-15.896-11.924-26.682t-28.954-24.412l-56.77-43.144q-29.522-21.574-56.202-40.874t-47.12-33.496-29.522-18.732q-17.030-10.218-28.954-13.058t-19.302 0.568-11.356 11.356-3.974 17.030v90.834h-186.206q-55.636-5.676-103.322-28.954t-83.452-60.744-56.202-85.154-20.438-102.188q0-57.906 22.708-108.432t62.446-87.996 93.104-59.61 113.54-22.14l175.99 1.134q18.168 0 36.9-6.812t32.928-18.168 23.276-26.682 9.082-33.496q0-17.030-9.082-32.928t-24.412-27.25-34.062-18.168-36.9-6.814h-206.644q-4.54 0-10.218 1.134-89.698 7.948-167.474 45.984t-135.114 97.644-90.266 136.818-32.926 164.634z" />
<glyph unicode="&#x2604;" glyph-name="uniF0005" horiz-adv-x="1022" d="M899.968 840.968c-158.616 158.582-435.334 158.712-593.85 0l-179.094-179.222v170.228h-127.99v-383.974h383.976v127.992l-160.728-0.096 174.486 174.488c110.234 110.36 302.478 110.36 412.712-0.128 55.13-55.136 85.496-128.376 85.496-206.36 0-78.074-30.366-151.35-85.496-206.644l-96.504-96.472 90.49-90.456 96.504 96.25c79.256 79.514 123 185.048 123 297.326 0 112.216-43.742 217.714-123 297.072zM589.366-64l-90.49 90.616 90.556 90.46 90.49-90.62z" />
<glyph unicode="&#x2605;" glyph-name="uniF0006" horiz-adv-x="1022" d="M122.032 840.968c158.616 158.582 435.334 158.712 593.85 0l179.094-179.222v170.228h127.99v-383.974h-383.976v127.992l160.728-0.096-174.486 174.488c-110.234 110.36-302.478 110.36-412.712-0.128-55.13-55.136-85.496-128.376-85.496-206.36 0-78.074 30.366-151.35 85.496-206.644l96.504-96.472-90.49-90.456-96.504 96.25c-79.256 79.514-123 185.048-123 297.326 0 112.216 43.742 217.714 123 297.072zM432.634-64l90.49 90.616-90.556 90.46-90.49-90.62z" />
<glyph unicode="&#x2606;" glyph-name="uniF0007" d="M448 184.372v-248.374l-384 384 384 384v-253.824c446.75-10.48 427.588 303.792 313.864 509.824 280.71-303.416 221.098-789.57-313.862-775.626z" />
<glyph unicode="&#x2607;" glyph-name="uniF0008" d="M262.14 960c-113.728-206.032-132.89-520.304 313.86-509.824v253.824l384-384-384-384v248.374c-534.96-13.942-594.572 472.212-313.86 775.626z" />
<glyph unicode="&#x2608;" glyph-name="uniF0009" d="M761.864-64c113.726 206.032 132.886 520.306-313.862 509.824v-253.824l-384 384 384 384v-248.374c534.962 13.942 594.568-472.212 313.862-775.626z" />
<glyph unicode="&#x2609;" glyph-name="uniF000A" d="M576 711.626v248.374l384-384-384-384v253.824c-446.75 10.482-427.588-303.792-313.86-509.824-280.712 303.414-221.098 789.57 313.86 775.626z" />
<glyph unicode="&#x260a;" glyph-name="uniF000B" d="M535.442 619.114h-8.204v167.602q0 46.88-23.44 63.29t-56.258-10.548l-412.558-331.688q-32.814-25.786-32.814-63.876t32.814-65.048l409.040-328.17q33.988-24.612 58.602-6.446t24.612 59.188v176.978h62.12q271.912 0 399.666-226.204 7.034-12.892 15.236-16.408t12.892 1.172 4.688 15.236q-1.172 98.452-41.606 200.418t-105.482 182.25-155.294 131.268-184.010 50.982z" />
<glyph unicode="&#x260b;" glyph-name="uniF000C" d="M488.56 619.114h8.204v167.602q0 46.88 23.442 63.29t56.256-10.548l412.558-331.688q32.816-25.786 32.816-63.876t-32.816-65.048l-409.040-328.17q-33.99-24.612-58.602-6.446t-24.612 59.188v176.978h-62.118q-271.912 0-399.666-226.204-7.034-12.892-15.236-16.408t-12.892 1.172-4.688 15.236q1.172 98.452 41.606 200.418t105.484 182.25 155.294 131.268 184.010 50.982z" />
<glyph unicode="&#x260c;" glyph-name="uniF000D" d="M1018.848 65.050c0 0-112.634 548.126-606.808 548.126v217.778l-406.886-363.522 406.886-376.81v245.428c268.236 0 466.976-23.764 606.808-270.996z" />
<glyph unicode="&#x260d;" glyph-name="uniF000E" d="M611.962 336.042v-245.372l406.886 376.758-406.886 363.522v-217.718c-494.176 0-606.808-548.184-606.808-548.184 139.834 247.23 338.572 270.996 606.808 270.996z" />
<glyph unicode="&#x260e;" glyph-name="uniF000F" d="M369.92 658.944v137.216l-369.92-330.496 369.92-342.578v142.286l-216.32 200.294 216.32 193.28zM625.92 598.222v197.938l-369.92-330.496 369.92-342.578v223.13c168.6 0 270.952-21.606 398.080-246.376 0 0-18.792 498.382-398.080 498.382z" />
<glyph unicode="&#x260f;" glyph-name="uniF0010" d="M654.080 658.944v137.216l369.92-330.496-369.92-342.578v142.286l216.32 200.294-216.32 193.28zM398.080 598.222v197.938l369.92-330.496-369.92-342.578v223.13c-168.6 0-270.952-21.606-398.080-246.376 0 0 18.792 498.382 398.080 498.382z" />
<glyph unicode="&#x2610;" glyph-name="uniF0011" d="M365.714 341.714v-40q0-24-22.286-33.714-7.428-2.856-14.286-2.856-15.428 0-25.714 10.856l-292.572 292.572q-10.856 10.856-10.856 25.714t10.856 25.714l292.572 292.572q16.572 17.714 40 8 22.286-9.714 22.286-33.714v-39.428l-226.856-227.428q-10.856-10.856-10.856-25.714t10.856-25.714zM1024 320q0-33.144-9.714-76.286t-22-78.856-27.428-71.428-23.144-51.714l-11.428-22.856q-4.572-9.714-16-9.714-3.428 0-5.144 0.572-14.286 4.572-13.144 19.428 24.572 228.572-60.572 322.858-36.572 40.572-97.428 63.144t-152.856 30v-143.428q0-24-22.286-33.714-7.428-2.856-14.286-2.856-15.428 0-25.714 10.856l-292.572 292.572q-10.856 10.856-10.856 25.714t10.856 25.714l292.572 292.572q16.572 17.714 40 8 22.286-9.714 22.286-33.714v-149.714q234.856-16 342.286-126.286 96.572-98.856 96.572-290.856z" />
<glyph unicode="&#x2611;" glyph-name="uniF0012" d="M658.286 341.714v-40q0-24 22.286-33.714 7.428-2.856 14.286-2.856 15.428 0 25.714 10.856l292.572 292.572q10.856 10.856 10.856 25.714t-10.856 25.714l-292.572 292.572q-16.572 17.714-40 8-22.286-9.714-22.286-33.714v-39.428l226.856-227.428q10.856-10.856 10.856-25.714t-10.856-25.714zM0 320q0-33.144 9.714-76.286t22-78.856 27.428-71.428 23.144-51.714l11.428-22.856q4.572-9.714 16-9.714 3.428 0 5.144 0.572 14.286 4.572 13.144 19.428-24.572 228.572 60.572 322.858 36.572 40.572 97.428 63.144t152.856 30v-143.428q0-24 22.286-33.714 7.428-2.856 14.286-2.856 15.428 0 25.714 10.856l292.572 292.572q10.856 10.856 10.856 25.714t-10.856 25.714l-292.572 292.572q-16.572 17.714-40 8-22.286-9.714-22.286-33.714v-149.714q-234.856-16-342.286-126.286-96.572-98.856-96.572-290.856z" />
<glyph unicode="&#x2612;" glyph-name="uniF0013" d="M960-64h-128q-27 0-45.5 19t-18.5 45v384q0 27-19 45.5t-45 18.5h-192v-229q0-11-13.5-19t-32-7.5-29.5 12.5l-419 328q-18 18-18 43.5t18 43.5l419 327q11 12 29.5 12.5t32-7.5 13.5-20v-228h256q106 0 181-75t75-181v-448q0-26-19-45t-45-19z" />
<glyph unicode="&#x2613;" glyph-name="uniF0014" d="M1006 532.998l-419-328q-11-12-29.5-12.5t-32 7.5-13.5 19v229h-192q-26 0-45-18.5t-19.002-45.5v-384q0-26-18.502-45t-45.498-19h-128q-26 0-45 19t-19.002 45v448q0 106 75.002 181t181.002 75h256v228q0 12 13.5 20t32 7.5 29.5-12.5l419-327q18-18 18-43.5t-18-43.5z" />
<glyph unicode="&#x2614;" glyph-name="uniF0015" d="M842.322 747.42q29.836 29.836 71.924 29.836t71.924-29.836q30.9-29.836 30.9-71.392t-30.9-71.392l-398.52-396.386q-12.788-14.918-31.966-20.778t-40.49-4.794-42.088 9.058-35.698 22.91l-392.126 389.992q-30.9 29.836-30.9 71.392t30.9 71.392q14.918 14.918 33.564 22.376t38.36 7.458 38.892-7.458 34.098-22.376l326.060-321.798z" />
<glyph unicode="&#x2615;" glyph-name="uniF0016" d="M839.11 211.446l-326.060 321.798-326.060-321.798q-14.918-14.918-34.098-22.376t-38.892-7.458-38.36 7.458-33.564 22.376q-30.9 29.836-30.9 71.392t30.9 71.392l392.126 388.928q14.918 14.918 35.698 23.442t42.088 9.59 41.024-5.326 32.5-21.312l398.52-395.322q29.836-29.836 29.836-71.392t-29.836-71.392q-14.918-14.918-34.098-22.376t-38.892-7.458-38.36 7.458-33.564 22.376z" />
<glyph unicode="&#x2616;" glyph-name="uniF0017" d="M799.702 772.994l-321.798-326.060 321.798-326.060q14.918-14.918 22.376-34.098t7.458-38.892-7.458-38.36-22.376-33.564q-29.836-30.9-71.392-30.9t-71.392 30.9l-388.928 392.126q-14.918 14.918-23.444 35.698t-9.59 42.090 5.326 41.024 21.31 32.5l395.322 398.52q29.836 29.836 71.392 29.836t71.392-29.836q14.918-14.918 22.376-34.098t7.458-38.892-7.458-38.36-22.376-33.566z" />
<glyph unicode="&#x2617;" glyph-name="uniF0018" d="M262.66 771.926q-14.918 14.918-22.376 34.098t-7.46 38.892 7.46 38.36 22.376 33.564q29.834 30.902 71.392 30.902t71.392-30.902l395.322-398.518q14.918-12.788 21.312-31.968t5.326-40.492-9.59-42.088-23.442-35.698l-388.928-392.126q-29.834-30.9-71.392-30.9t-71.392 30.9q-14.918 14.918-22.376 33.564t-7.46 38.36 7.46 38.892 22.376 34.098l321.798 324.996z" />
<glyph unicode="&#x2618;" glyph-name="uniF0019" d="M1025.598 194.396h-1024l512.534 511.466z" />
<glyph unicode="&#x2619;" glyph-name="uniF001A" d="M1025.598 705.862h-1024l512.534-511.466z" />
<glyph unicode="&#x261a;" glyph-name="uniF001B" d="M511.432 712.548q43.712 0 73.236-30.656l421.238-420.1q13.626-13.626 13.626-32.928t-13.626-32.36-32.36-13.058-32.36 12.49l-421.238 421.238q-9.084 9.084-17.032 0l-421.238-421.238q-13.626-12.49-32.36-12.49t-32.36 13.058-13.626 32.36 13.626 32.928l421.238 420.1q29.522 30.656 73.236 30.656z" />
<glyph unicode="&#x261b;" glyph-name="uniF001C" d="M511.432 183.446q-43.714 0-73.236 29.522l-421.238 421.238q-13.626 13.626-13.626 32.358t13.626 32.358 32.36 13.626 32.36-13.626l421.238-421.238q9.084-7.948 17.032 1.134l421.238 420.1q13.626 13.626 32.36 13.626t32.36-13.626 13.626-32.358-13.626-32.36l-421.238-421.238q-29.522-29.522-73.236-29.522z" />
<glyph unicode="&#x261c;" glyph-name="uniF001D" d="M897.6 211.248l-383.256 368.020-389.118-372.708q-21.098-19.924-50.398-19.924-30.474 0-52.156 20.512t-21.682 49.812q0 28.13 21.098 49.226l439.514 421.932q21.096 21.096 52.742 21.096v0q31.644 0 52.742-21.096l439.514-421.932q19.924-21.096 19.924-49.226 0-29.3-21.096-49.812t-51.568-20.512q-33.99 0-56.256 24.612z" />
<glyph unicode="&#x261d;" glyph-name="uniF001E" d="M129.916 724.598l384.428-368.020 387.942 372.708q22.27 19.924 51.568 19.924 30.474 0 51.568-20.512t21.096-49.812q0-28.13-19.924-48.054l-439.514-423.106v1.172q-22.27-22.27-52.742-22.27v0q-31.644 0-52.742 22.27v-1.172l-439.514 423.106q-21.098 19.924-21.098 48.054 0 29.3 21.682 49.812t52.156 20.512q32.814 0 55.086-24.612z" />
<glyph unicode="&#x261e;" glyph-name="uniF001F" d="M1027.23 463.866q0 12.842-10.576 23.42l-51.372 51.372q-10.576 10.574-23.42 10.574t-23.42-10.574l-401.91-401.912-401.912 401.912q-9.068 10.574-22.662 10.574t-24.174-10.574l-51.372-51.372q-9.068-10.574-9.068-23.42t9.068-23.42l477.458-475.944q9.068-10.576 22.662-10.576t24.174 10.576l475.944 475.944q10.576 10.574 10.576 23.42zM1027.23 856.708q0 12.842-10.576 23.42l-51.372 51.372q-10.576 10.576-23.42 10.576t-23.42-10.576l-401.91-401.91-401.912 401.91q-10.576 10.576-23.42 10.576t-23.42-10.576l-51.372-51.372q-9.068-10.574-9.068-23.42t9.068-23.42l477.458-475.944q9.068-10.576 22.664-10.576t24.174 10.576l475.944 475.944q10.576 10.576 10.576 23.42z" />
<glyph unicode="&#x261f;" glyph-name="uniF0020" d="M1027.23 432.132q0-12.842-10.576-23.42l-51.372-51.372q-10.576-10.576-23.42-10.576t-23.42 10.576l-401.91 401.912-401.912-401.912q-9.068-10.576-22.662-10.576t-24.174 10.576l-51.372 51.372q-9.068 10.576-9.068 23.42t9.068 23.42l477.458 475.944q9.068 10.576 22.662 10.576t24.174-10.576l475.944-475.944q10.576-10.574 10.576-23.42zM1027.23 39.29q0-12.842-10.576-23.42l-51.372-51.372q-10.576-10.576-23.42-10.576t-23.42 10.576l-401.91 401.91-401.912-401.912q-10.576-10.576-23.42-10.576t-23.42 10.576l-51.372 51.372q-9.068 10.576-9.068 23.42t9.068 23.42l477.458 475.944q9.068 10.574 22.664 10.574t24.174-10.574l475.944-475.944q10.576-10.576 10.576-23.42z" />
<glyph unicode="&#x1f46c;" glyph-name="uniF200E" d="M667 762.998q-11 0-18.5 7.5t-12.5 17.5-7.5 20.5-2.5 16.5v124h2q9 0 17-2.5t19.5-9.5 28-20.5 41.5-35.5q27-24 43-41t24.5-28 10.5-19 2-14v-16h-147zM684 169.998q-36-7-64-19-24-11-43-30t-16-48q2-20 3-35.5t2-28.5h-374q-19 0-41.5 11t-42 29-32.5 41.5-13 47.5v682q0 21 9.5 44t26 41.5 37.5 31 44 12.5h383v-125q0-20 6-41.5t19-40.5 33-31 47-12h146v-299l-41-65-88 103q-17-19-29-38-11-17-20-36.5t-11-39.5h-375q-26 0-44-18.5t-18-44.5 18-44 44-18h375q23 0 38 12 5-9 8.5-17t6.5-13q4-6 6-11zM250 573.998q-26 0-44-18.5t-18-44.5 18-44 44-18h375q26 0 44.5 18t18.5 44-18.5 44.5-44.5 18.5h-375zM870 86.998q6-3 18-7t23.5-11.5 20-21 7.5-35.5q-1-27-16-42.5t-35-20-40.5 2-31.5 24.5q-14 23-12.5 45.5t5.5 47.5q2 14-0.5 20t-5.5 11q-2 2-5.5 6.5t-6.5 9.5q-4 5-8 11-3-5-7-9-3-4-6.5-9t-6.5-10q-7-9-7.5-15t1.5-14q1-4 2.5-15t1-25-5-29.5-15.5-29.5q-15-18-35-22t-38.5 2.5-31.5 22-13 37.5q-1 21 7 35t20 23 25 14.5 22 8.5q18 7 25 12.5t13 13.5q3 4 7.5 10.5t9.5 12.5q5 7 10 15-4 4-8 10-4 5-9.5 12t-11.5 16q-7 8-14 19.5t-13 23-10.5 21-5.5 14.5q-4 10-6 26t6 21 11 0.5 9-12.5q2-4 14-22.5t26-38.5q16-25 34-54 15 24 27 45 11 18 21 35t14 23q7 12 11.5 18.5t6.5 8.5 6.5 0.5 7.5-6.5q2-5 1.5-13.5t-2.5-25.5q-2-8-6.5-18t-9.5-20-10-19-8-13q-3-5-9.5-13t-12.5-16q-7-10-15-20 5-8 9-14t7.5-11.5 5.5-8.5q6-11 18.5-21t24.5-16zM693-10.002q14 0 23.5 9.5t9.5 23.5-9.5 23.5-23.5 9.5-23.5-9.5-9.5-23.5 9.5-23.5 23.5-9.5zM872-23.002q15 0 25.5 10.5t10.5 25.5-10.5 25.5-25.5 10.5-25.5-10.5-10.5-25.5 10.5-25.5 25.5-10.5z" />
<glyph unicode="&#x1f46d;" glyph-name="uniF200F" d="M667 760.998q-10 0-17.5 7.5t-12.5 17.5-7.5 20.5-2.5 17.5v123h2q8 0 16.5-2t20-9.5 28-21 41.5-35.5q27-24 42.5-40.5t24-28 10.5-19.5 2-14v-16h-147zM436 196.998q0-57 23-106t63-84h-330q-19 0-41.5 11t-42 29-32.5 41.5-13 48.5v681q0 21 10 44t26.5 41.5 37.5 31 44 12.5h382v-125q0-19 6-41t19-40.5 33-31 47-12.5h146v-278q-27 16-58.5 24.5t-65.5 8.5q-72 0-130.5-35.5t-91.5-94.5h-217q-26 0-44.5-18.5t-18.5-44.5 18.5-44 44.5-18h185zM251 571.998q-26 0-44.5-18t-18.5-44 18.5-44.5 44.5-18.5h375q26 0 44.5 18.5t18.5 44.5-18.5 44-44.5 18h-375zM922 11.998q14-17 15.5-28.5t-9.5-23.5q-12-14-26-13t-28 12l-85 82q-27-17-58.5-24.5t-62.5-5-60.5 15.5-53.5 38q-27 27-41 62t-14 71 14 70.5 41 62.5q27 27 61 41t70 14 70.5-14 61.5-41q24-25 37-55t15.5-61.5-5-62.5-24.5-58zM686 73.998q25 0 47 10t38.5 26.5 26 39 9.5 48.5q0 25-9.5 47.5t-26 39.5-38.5 26.5-47 9.5q-26 0-48-9.5t-38.5-26.5-26-39.5-9.5-47.5q0-26 9.5-48.5t26-39 38.5-26.5 48-10z" />
<glyph unicode="&#xf0021;" glyph-name="uniF0021" d="M427.356 417.046l10.322-10.322q4.13-4.13 8.258-7.742t8.258-7.742l12.388-12.388q20.644-20.644 16.516-36.13t-25.806-36.13q-9.29-10.322-30.452-31.484t-45.418-45.936-46.968-47.484-35.096-36.13q-18.582-18.582-25.806-32.516t6.194-27.356q9.29-9.29 23.742-24.774t24.774-25.806q17.548-17.548 12.904-30.968t-30.452-15.484q-26.838-3.096-59.872-7.226t-68.128-7.742-68.644-7.742-61.418-7.226q-26.838-3.096-37.162 6.71t-8.258 34.582q2.064 25.806 5.676 57.806t7.742 65.548 7.742 66.582 6.71 60.904q3.098 29.934 17.032 38.194t31.484-9.29q10.324-10.322 26.838-25.29t27.872-26.322 21.676-7.226 23.742 16.516q13.42 13.418 36.646 37.16t48.516 49.032 49.032 49.548 38.194 38.71q6.194 6.194 13.936 11.87t17.032 7.742 19.096-1.032 21.162-13.418zM949.678 937.304q26.84 3.096 37.16-6.71t8.258-34.582q-2.066-25.806-5.678-57.806t-7.742-65.548-7.742-67.096-6.71-61.42q-3.096-29.934-17.032-37.676t-31.484 9.806q-10.322 10.322-28.388 26.84t-29.418 27.87-19.612 9.806-20.644-13.934q-14.452-14.452-37.678-38.194t-49.032-50.064-50.582-51.096l-38.194-38.194q-6.194-6.194-13.418-12.388t-16-9.29-18.582-1.032-20.13 13.418l-39.226 39.226q-20.644 20.644-18.066 37.676t23.226 37.678q9.29 9.29 30.968 31.484t46.452 46.968 48 48.516 36.644 36.13q18.582 18.58 23.226 30.452t-8.774 25.29q-9.29 9.29-22.194 22.71t-23.226 23.742q-17.548 17.548-12.904 30.968t30.452 16.516 59.356 7.226 68.644 7.742 68.644 7.742 61.418 7.226z" />
<glyph unicode="&#xf0022;" glyph-name="uniF0022" d="M434.014 431.060q25.338 2.816 35.664-7.508t8.448-34.724q-1.878-25.338-5.63-57.246t-7.978-65.224-7.976-66.164-6.57-61q-2.814-30.030-16.894-38.008t-30.97 9.854q-10.324 10.324-26.278 25.338t-27.214 25.338q-12.2 12.2-22.524 8.448t-23.462-16.894q-14.076-14.076-37.070-37.538t-47.862-48.802-48.332-49.27-38.478-38.008q-5.632-6.568-13.608-12.2t-16.894-7.976-18.77 0.47-21.116 14.076q-6.57 6.568-10.792 10.324t-7.976 7.508l-20.646 20.648q-20.646 20.648-16.422 35.664t24.87 36.6q9.384 9.384 30.97 30.5t45.516 45.516 46.454 47.394 35.662 36.13q18.77 18.77 25.338 32.378t-6.568 26.746q-9.384 9.384-23.462 24.87t-24.402 25.808q-16.894 16.894-12.67 30.5t30.5 16.424 59.124 7.038 67.57 7.976 68.51 7.976 61.94 7.038zM993.346 904.99q20.648-20.646 18.302-37.070t-23.932-38.008q-10.324-10.324-31.438-31.908t-45.986-46.454-47.862-48.332-36.13-36.6q-18.77-18.77-22.99-30.030t8.914-24.402q9.384-9.384 22.054-22.992t22.994-23.932q16.894-16.892 12.2-30.5t-30.030-16.424q-26.276-2.814-59.124-7.038t-68.038-7.976-68.978-7.978-61-7.038q-48.802-5.63-45.048 41.294 2.816 25.34 6.1 57.246t7.508 65.694 7.976 66.632 6.568 61.002q2.816 30.030 16.894 38.008t31.908-9.854q4.692-5.63 12.2-12.668t15.486-14.548 15.486-14.548 13.14-12.668q12.2-12.2 19.708-10.794t20.648 14.548q14.076 14.076 37.538 38.008t49.27 49.74 49.74 50.208 38.948 39.416q5.63 5.63 13.14 11.73t15.954 8.916 17.832 0.938 20.648-13.14q6.568-6.568 10.794-10.324t7.976-7.508l8.448-8.448z" />
<glyph unicode="&#xf0023;" glyph-name="uniF0023" d="M190.292 576.682h643.416l-321.708 386.048zM833.708 319.314h-643.416l321.708-386.048z" />
<glyph unicode="&#xf0024;" glyph-name="uniF0024" horiz-adv-x="618" d="M585.144 338.286q0-14.856-10.856-25.714l-256-256q-10.856-10.856-25.714-10.856t-25.714 10.856l-256 256q-10.856 10.856-10.856 25.714t10.856 25.714 25.714 10.856h512q14.856 0 25.714-10.856t10.856-25.714zM585.144 557.714q0-14.856-10.856-25.714t-25.714-10.856h-512q-14.856 0-25.714 10.856t-10.856 25.714 10.856 25.714l256 256q10.858 10.856 25.714 10.856t25.714-10.856l256-256q10.856-10.856 10.856-25.714z" />
<glyph unicode="&#xf0025;" glyph-name="uniF0025" d="M1005.948 528.544l-299.766 293.698-299.766-293.698h137.14v-132.286h326.466v132.286h135.926zM-11.074 333.148l299.766-292.486 299.766 292.486h-137.14v132.286h-326.466v-132.286h-135.926z" />
<glyph unicode="&#xf0026;" glyph-name="uniF0026" d="M896 447.998h-160l-224-224-224 224h-160l-128-256v-64h1024v64l-128 256zM0 63.998h1024v-64h-1024v64zM576 639.998v256h-128v-256h-224l288-288 288 288h-224z" />
<glyph unicode="&#xf0027;" glyph-name="uniF0027" d="M0 63.998h1024v-64h-1024zM1024 191.998v-64h-1024v64l128 256h256v-128h256v128h256zM224 639.998l288 288 288-288h-224v-256h-128v256z" />
<glyph unicode="&#xf0028;" glyph-name="uniF0028" d="M896-64.002h-768q-53.002 0-90.502 37.5t-37.5 90.5v96q0 26 18.502 45t45.002 19 45.5-19 19.002-45v-32q0-27 18.502-45.5t45.498-18.5h640q26 0 45 18.5t19 45.5v32q0 26 18.5 45t45 19 45.5-19 19-45v-96q0-53-37.5-90.5t-90.5-37.5zM545 205.998q-14-14-33-14t-33 14l-341 345q-12 13-8.502 19t18.502 6h236v320q0 27 18.5 45.5t45.5 18.5h128q27 0 45.5-18.5t18.5-45.5v-320h235q15 0 19-6t-8-19z" />
<glyph unicode="&#xf0029;" glyph-name="uniF0029" d="M896-64.002h-768q-53.002 0-90.502 37.5t-37.5 90.5v96q0 26 19.002 45t45.002 19 45-19 19.002-45v-32q0-27 18.502-45.5t45.498-18.5h640q27 0 45.5 18.5t18.5 45.5v32q0 26 19 45t45 19 45-19 19.002-45v-96q0-53-37.5-90.5t-90.5-37.5zM875 575.998h-235v-320q0-27-18.5-45.5t-45.5-18.5h-128q-27 0-45.5 18.5t-18.5 45.5v320h-236q-15.002 0-18.502 6t8.502 19l341 345q14 14 33 14t33-14l341-345q12-13 8-19t-19-6z" />
<glyph unicode="&#xf002a;" glyph-name="uniF002A" d="M596.416 582.494v313.504h-168.832v-313.504h-235.584l320-326.496 320 326.496zM896 383.998v-256h-768v256h-128v-384h1024v384z" />
<glyph unicode="&#xf002b;" glyph-name="uniF002B" d="M427.584 255.998h168.832v313.504h235.584l-320 326.496-320-326.496h235.584zM896 383.998v-256h-768v256h-128v-384h1024v384z" />
<glyph unicode="&#xf002c;" glyph-name="uniF002C" horiz-adv-x="1098" d="M731.428 429.712q0 8-5.144 13.144t-13.144 5.142h-128v201.142q0 7.428-5.428 12.856t-12.856 5.428h-109.714q-7.428 0-12.858-5.428t-5.428-12.856v-201.144h-128q-7.428 0-12.856-5.428t-5.428-12.856q0-8 5.142-13.144l201.142-201.144q5.142-5.144 13.144-5.144t13.144 5.144l200.572 200.572q5.714 6.856 5.714 13.714zM1097.144 301.712q0-90.856-64.286-155.144t-155.144-64.286h-621.714q-105.714 0-180.856 75.144t-75.144 180.856q0 74.286 40 137.144t107.43 94.286q-1.144 17.142-1.144 24.57 0 121.144 85.714 206.858t206.856 85.714q89.144 0 163.144-49.714t107.714-132q40.572 35.428 94.856 35.428 60.572 0 103.428-42.856t42.856-103.428q0-43.428-23.428-78.856 74.286-17.714 122-77.428t47.714-136.286z" />
<glyph unicode="&#xf002d;" glyph-name="uniF002D" horiz-adv-x="1098" d="M731.428 466.284q0 8-5.144 13.142l-201.144 201.144q-5.144 5.142-13.144 5.142t-13.144-5.142l-200.572-200.572q-5.714-6.858-5.714-13.714 0-8 5.142-13.142t13.144-5.142h128v-201.142q0-7.428 5.428-12.856t12.856-5.428h109.714q7.428 0 12.856 5.428t5.428 12.856v201.144h128q7.428 0 12.856 5.428t5.428 12.856zM1097.144 301.712q0-90.856-64.286-155.144t-155.144-64.286h-621.714q-105.714 0-180.856 75.144t-75.144 180.856q0 74.286 40 137.144t107.43 94.286q-1.144 17.142-1.144 24.57 0 121.144 85.714 206.858t206.856 85.714q89.144 0 163.144-49.714t107.714-132q40.572 35.428 94.856 35.428 60.572 0 103.428-42.856t42.856-103.428q0-43.428-23.428-78.856 74.286-17.714 122-77.428t47.714-136.286z" />
<glyph unicode="&#xf002e;" glyph-name="uniF002E" d="M512 857.494l-266.24-249.856h168.96v-262.144h194.56v262.144h169.010l-266.29 249.856zM990.208 266.544l-163.022 109.672h-100.504l174.080-133.528h-181.504c-5.222 0-9.88-2.664-12.288-6.808l-41.778-114.432h-306.382l-41.832 114.432c-2.304 4.146-7.064 6.808-12.288 6.808h-181.45l174.13 133.528h-100.556l-162.968-109.672c-24.27-14.49-38.76-47.922-32.256-74.19l28.722-157.39c6.504-26.318 35.378-47.872 64.050-47.872h835.226c28.774 0 57.6 21.554 64.102 47.872l28.722 157.39c6.606 26.318-7.934 59.702-32.202 74.19z" />
<glyph unicode="&#xf002f;" glyph-name="uniF002F" d="M990.208 266.544l-163.022 109.672h-100.504l174.080-133.528h-181.504c-5.222 0-9.88-2.664-12.288-6.808l-41.778-114.432h-306.382l-41.832 114.432c-2.304 4.146-7.064 6.808-12.288 6.808h-181.45l174.13 133.528h-100.556l-162.968-109.672c-24.27-14.49-38.76-47.922-32.256-74.19l28.722-157.39c6.504-26.318 35.378-47.872 64.050-47.872h835.226c28.774 0 57.6 21.554 64.102 47.872l28.722 157.39c6.606 26.318-7.934 59.702-32.202 74.19zM778.29 595.352h-169.010v262.144h-194.56v-262.144h-168.96l266.24-249.856 266.29 249.856z" />
<glyph unicode="&#xf0030;" glyph-name="uniF0030" d="M736 511.998l-256-256-256 256h160v384h192v-384zM480 255.998h-480v-256h960v256h-480zM896 127.998h-128v64h128v-64z" />
<glyph unicode="&#xf0031;" glyph-name="uniF0031" d="M480 255.998h-480v-256h960v256h-480zM896 127.998h-128v64h128v-64zM224 639.998l256 256 256-256h-160v-320h-192v320z" />
<glyph unicode="&#xf0032;" glyph-name="uniF0032" d="M960 511.998q-27 0-45.5-18.5t-18.5-45.5q0-159-112.5-271.5t-271.5-112.5-271.5 112.5-112.5 271.5 112.5 271.5 271.5 112.5q26 0 45 19t19 45-19 45-45 19q-139 0-257-68.5t-186.5-186.5-68.5-257 68.5-257 186.5-186.5 257-68.5 257 68.5 186.5 186.5 68.5 257q0 27-18.5 45.5t-45.5 18.5zM896 703.998h-256q-78 0-141.5-24.5t-102.5-64-68-87.5-42-96-20.5-87.5-8.5-64.5l-1-24q21 46 37.5 76.5t45 68 59 59.5 76.5 37 102 15v-128z" />
<glyph unicode="&#xf0033;" glyph-name="uniF0033" d="M896 127.998c0-35.392-28.608-64-64-64h-640c-35.328 0-64 28.608-64 64v640c0 35.392 28.672 64 64 64h192l213.312 128h-469.312c-70.656 0-128-57.344-128-128v-768c0-70.656 57.344-128 128-128h768c70.656 0 128 57.344 128 128v528l-128-96v-368zM256.896 338.302c-1.024-11.136-1.024-17.6-1.024-17.6 0 6.208 0.832 11.456 1.024 17.6zM702.976 834.558c-0.704-6.528-1.024-5.312-1.088 0.384-31.616 0.256-429.568-31.424-446.208-520.768 4.736-24.576 85.824 323.136 448.128 394.944 0.192-5.12 0.192-133.12 0.192-133.12l320 192-320 192c1.088 0.576-2.432-101.76-2.048-125.056 2.368-0.064 3.2-0.192 1.024-0.384z" />
<glyph unicode="&#xf0034;" glyph-name="uniF0034" d="M731.592 417.278q14.792-14.792 35.84-14.792t35.84 14.792l197.974 199.11q14.792 14.792 14.792 35.84t-14.792 35.84l-197.972 199.11q-14.792 14.79-35.84 14.79t-35.84-14.79-14.792-35.84 14.792-35.84l163.84-163.84-163.84-162.702q-14.792-14.79-14.792-35.84t14.792-35.84zM915.91 104.388h-796.446v647.394h299.236v98.986h-299.236q-40.96 0-69.972-29.012t-29.014-69.974v-647.394q0-40.96 29.014-70.542t69.972-29.582h796.446q42.098 0 71.11 29.582t29.014 70.542v249.174h-100.126v-249.174zM892.018 701.724h-249.174q-144.498 0-246.898-101.832t-102.4-246.328v-100.126h100.126v100.126q0 102.4 72.818 175.788t176.356 73.386h249.174q25.030 0 48.924-5.688v101.262q-27.308 3.414-48.924 3.414z" />
<glyph unicode="&#xf0035;" glyph-name="uniF0035" d="M768 151.038h-665.6v460.8h132.864c0 0 35.278 45.874 111.104 102.4h-295.168c-28.264 0-51.2-22.938-51.2-51.2v-563.2c0-28.312 22.938-51.2 51.2-51.2h768c28.312 0 51.2 22.886 51.2 51.2v191.794l-102.4-84.224v-56.37zM684.134 506.878v-181.76l339.866 266.29-339.866 255.95v-160.256c-412.774-0.050-412.774-408.064-412.774-408.064 116.838 191.896 188.722 227.84 412.774 227.84z" />
<glyph unicode="&#xf0036;" glyph-name="uniF0036" d="M928 639.998q21-17 37-34.5t16-34.5q0-19-14.5-31t-35.5-27q-32-24-67.5-50.5t-67.5-50-56.5-41-34.5-23.5q-33-20-51-14.5t-23 21.5v116h-4q-76 0-133-16.5t-100-50-75-83-58-114.5q-3 2-6 11-2 8-3.5 23t-1.5 42q0 84 25.5 157t73 127.5 115 85.5 151.5 30q5 0 8.5-0.5t8.5-0.5l-1 105q2 28 23 40.5t53-10.5q10-8 36.5-29t59.5-47 67-53.5 58-47.5zM761 263.998q33 0 46.5-18.5t13.5-53.5v-131q0-50-29-83t-77-32l-599 4q-22 0-43 9t-37.5 25.5-27 39.5-10.5 52v579q0 49 29.5 82t82.5 32l203-2q11 0 23-2.5t21.5-9.5 16-18.5 6.5-29.5q0-17-7-28.5t-18.5-19-25-11-26.5-3.5l-96 1q-39 0-61-24.5t-22-60.5v-396q0-21 7.5-38t20-28.5 28-18 31.5-6.5l408-4q35-1 55.5 23t20.5 61v43q0 31 18.5 49t47.5 18z" />
<glyph unicode="&#xf0037;" glyph-name="uniF0037" horiz-adv-x="952" d="M365.714 137.142q0-2.286 0.572-11.428t0.286-15.144-1.714-13.428-5.714-11.144-11.714-3.714h-182.856q-68 0-116.286 48.286t-48.286 116.286v402.286q0 68 48.286 116.286t116.286 48.286h182.856q7.428 0 12.858-5.428t5.428-12.856q0-2.286 0.572-11.428t0.286-15.144-1.714-13.428-5.714-11.144-11.714-3.714h-182.856q-37.714 0-64.57-26.856t-26.856-64.57v-402.286q0-37.714 26.856-64.572t64.57-26.856h178.286t6.572-0.572 6.572-1.714 4.572-3.144 4-5.144 1.142-7.714zM896 447.998q0-14.856-10.856-25.714l-310.856-310.856q-10.856-10.856-25.714-10.856t-25.714 10.856-10.856 25.714v164.572h-256q-14.856 0-25.714 10.856t-10.856 25.714v219.428q0 14.856 10.856 25.714t25.714 10.856h256v164.572q0 14.856 10.856 25.714t25.714 10.858 25.714-10.858l310.856-310.856q10.856-10.856 10.856-25.714z" />
<glyph unicode="&#xf0038;" glyph-name="uniF0038" horiz-adv-x="878" d="M676.572 447.998q0-14.856-10.856-25.714l-310.858-310.856q-10.858-10.856-25.714-10.856t-25.714 10.856-10.858 25.714v164.572h-256q-14.856 0-25.714 10.856t-10.856 25.714v219.428q0 14.856 10.856 25.714t25.714 10.856h256v164.572q0 14.856 10.856 25.714t25.714 10.858 25.714-10.858l310.856-310.856q10.856-10.856 10.856-25.714zM877.714 649.142v-402.286q0-68-48.286-116.286t-116.286-48.286h-182.856q-7.428 0-12.856 5.428t-5.428 12.856q0 2.286-0.572 11.428t-0.286 15.144 1.714 13.428 5.714 11.144 11.714 3.714h182.856q37.714 0 64.572 26.856t26.856 64.572v402.286q0 37.714-26.856 64.572t-64.572 26.858h-178.286t-6.572 0.57-6.572 1.714-4.572 3.142-4 5.144-1.142 7.714q0 2.286-0.572 11.428t-0.286 15.144 1.714 13.428 5.714 11.144 11.714 3.714h182.856q68 0 116.286-48.286t48.286-116.286z" />
<glyph unicode="&#xf0039;" glyph-name="uniF0039" d="M823.466 783.998q29.866 0 56-11.2t45.866-30.932 30.932-46.4 11.2-56.534v-445.866q0-29.866-11.2-56.534t-30.932-46.4-45.866-30.932-56-11.2h-444.8q-29.868 0-56.534 11.2t-46.4 30.932-30.932 46.4-11.2 56.534v121.6h132.266v-130.134h467.2v465.068h-132.268v134.4h122.668zM633.6 438.398q2.134-33.068-11.732-44.268t-48-10.134q-38.4 1.068-84.8 3.2t-92.8 5.332-90.668 6.932-78.4 8-39.468 22.4 17.068 39.466q12.8 12.8 31.466 32.534t30.4 31.466q18.132 17.068 9.068 35.732t-33.6 43.2q-34.134 34.134-60.8 62.932t-51.2 54.4q-27.734 27.734-30.4 49.068t25.068 48q19.2 19.2 33.6 34.134t31.466 32q13.866 13.866 27.734 18.134t25.6 1.068 21.866-10.668 18.668-16q37.332-38.4 65.6-68.8t64.534-66.668q17.068-17.068 30.4-22.4t29.332 10.666q7.466 6.4 17.6 16t20.8 19.734 20.8 19.2 16.534 15.468q22.4 23.466 40.534 13.332t21.332-50.668q3.2-36.268 6.4-80.534t5.866-89.068 4.8-87.466 5.332-75.732z" />
<glyph unicode="&#xf003a;" glyph-name="uniF003A" horiz-adv-x="1088" d="M54 385.998q-24 0-40.5 16t-16.5 40v75q0 24 16.5 40.5t40.5 16.5h724q-18-11-29-26t-11-30v-40l1-31q-6-1-17-1h-68q-81 0-89-60h-511zM178 637.998q-23 0-40 16.5t-17 40.5v69q0 23 17 40.5t40 17.5h762q23 0 39.5-17.5t16.5-40.5v-69q0-24-16.5-40.5t-39.5-16.5h-762zM698 195.998q18 0 27.5 2t14-1 5.5-14 1-37v-7q0-4 1-7h-693q-24 0-40.5 17t-16.5 40v75q0 23 16.5 40t40.5 17h509v-23q0-44 24.5-72.5t57.5-28.5h20q4 0 6-0.5t7-0.5h20zM1057 357.998q7-6 10.5-14t4-17-2-16.5-8.5-11.5q-16-14-43.5-31t-58-35.5-59.5-36.5-47-32q-23-20-34-21t-11 28v50q0 20-8.5 28t-24.5 8h-120q-14 0-24.5 7.5t-10.5 25.5v50q0 31 9.5 37.5t34.5 6.5h19q7 0 17-0.5t25-0.5h43q23 0 31.5 15.5t8.5 34.5v47q0 20 8 25.5t25-8.5q18-13 47-31t61-37 61-37.5 47-33.5z" />
<glyph unicode="&#xf003b;" glyph-name="uniF003B" horiz-adv-x="1088" d="M183 640.998q-23 0-39.5 17.5t-16.5 40.5v69q0 24 16.5 40.5t39.5 16.5h764q24 0 41-16.5t17-40.5v-69q0-23-17-40.5t-41-17.5h-764zM58 385.998q-24 0-40.5 17t-16.5 41v76q0 23 16.5 40t40.5 17h737q14 0 26-6.5t20-17.5q-21-2-39-9t-31-16q-11-9-32-25t-46.5-35.5-53-41-49.5-40.5h-532zM582 259.998q25-27 61.5-60.5t75.5-66.5h-661q-24 0-40.5 16.5t-16.5 40.5v75q0 23 16.5 39.5t40.5 16.5h510q2-20 5-37t9-24zM1040 385.998q14 0 25-7t11-25v-51q0-30-9.5-37t-35.5-7q-11 0-18 0.5t-17 0.5-25.5 0.5-43.5 0.5q-22 0-31-15.5t-9-34.5v-49q0-20-9-25t-26 9-45 32-58 37-58.5 37.5-46.5 33.5q-14 11-14.5 30.5t10.5 28.5q16 13 43 31t56 36.5 56.5 36.5 45.5 33q23 19 34.5 20t11.5-30v-47q0-20 9-29.5t24-9.5h120z" />
<glyph unicode="&#xf003c;" glyph-name="uniF003C" d="M228.266 587.73q0-70.4 37.334-127.466t97.068-85.868l2.132-139.734q-57.6 16-106.666 49.6t-84.8 80-56 103.466-20.266 120q0 75.732 28.8 142.932t78.934 117.332 116.8 78.932 143.466 28.8q75.732 0 142.932-28.8t116.8-78.932 78.4-117.332 28.8-142.932q0-46.932-10.668-86.4l-120.534 78.932v7.466q0 49.068-18.668 92.268t-50.668 75.2-74.668 50.668-91.734 18.666-92.266-18.666-75.2-50.668-50.668-75.2-18.668-92.268zM969.6 286.93q-36.268 1.068-75.734-2.134-34.134-2.134-77.332-8t-88-17.6l116.266-192q14.932-28.8 5.332-60.8t-39.466-46.932q-28.8-16-60.8-5.866t-46.932 38.932l-97.068 216.534q-39.466-23.466-70.932-49.6t-53.868-48.534q-26.666-26.668-46.932-53.332l-3.2 645.332z" />
<glyph unicode="&#xf1001;" glyph-name="uniF1001" d="M792.552-24.332q-47.688 0-90.266 18.168t-74.37 49.956-49.956 74.37-18.168 90.266 18.168 90.266 49.956 73.802 74.37 49.39 90.266 18.168 90.266-18.168 73.802-49.39 49.39-73.802 18.166-90.266-18.168-90.266-49.39-74.37-73.802-49.956-90.266-18.168zM907.228 245.896h-84.020v78.344q0 15.896-10.218 27.25t-26.116 11.356-24.98-11.356-9.082-27.25v-78.344h-73.802q-15.896 0-27.25-11.356t-11.356-27.25 11.356-23.842 27.25-7.948h73.802v-80.614q0-15.896 9.082-27.25t24.98-11.356 26.116 11.356 10.218 27.25v80.614h84.020v-2.272q15.896 0 27.25 9.082t11.356 24.98-11.356 27.25-27.25 11.356zM626.78 528.612q-4.542-18.168-9.082-32.928-4.542-12.488-11.356-25.546t-14.76-19.87q-10.218-7.948-14.192-17.030t-6.812-18.732-6.244-19.87-11.356-20.438q-26.116-34.062-39.172-65.854t-18.168-61.312-2.838-58.472 9.084-56.202q4.54-20.438 13.626-42.578t26.682-45.416 44.85-45.416 68.124-42.578q-27.25-5.676-63.582-10.218-30.656-3.406-75.504-6.244t-102.754-2.84q-29.522 0-68.694 2.272t-80.612 5.676-81.752 7.948-73.802 9.65-56.772 10.786-28.954 10.218q-10.218 9.082-15.896 50.526t3.406 108.432q5.676 37.47 30.088 57.338t57.34 31.224 68.694 21.004 63.014 26.682q21.574 13.626 32.928 25.546t15.896 24.412 4.54 26.116-1.134 29.522q-2.272 23.842-16.464 37.47t-30.088 27.25q-9.082 6.812-15.896 20.438t-11.354 26.116q-5.676 14.76-9.082 32.928-7.948 2.272-14.76 6.812-5.676 4.54-12.49 13.626t-12.49 27.25q-5.676 17.030-3.974 31.79t6.244 24.98q4.54 12.49 12.49 21.574 0 38.604 4.54 77.208 4.54 32.928 14.194 70.396t31.224 66.99q20.438 28.384 43.712 46.552t48.254 28.384 49.956 14.194 47.688 3.974q29.522 0 56.772-6.812t50.526-18.168 41.442-25.546 29.522-28.954q26.116-32.926 38.038-72.666t17.6-74.938q5.676-40.874 4.542-81.75 6.812-5.676 11.356-13.626 4.542-6.812 6.812-18.168t0-28.384q-2.272-21.572-9.082-34.062t-14.76-19.3q-9.082-7.948-19.302-11.356z" />
<glyph unicode="&#xf1002;" glyph-name="uniF1002" d="M781 448.998q45 0 85-17t70-47 47.5-70 17.5-85-17.5-85-47.5-70-70-47.5-85-17.5q-46 0-86 17.5t-70 47.5-47 70-17 85 17 85 47 70 70 47 86 17zM890 195.998q15 0 25.5 9t10.5 24-10.5 25.5-25.5 10.5h-216q-15 0-25.5-10.5t-10.5-25.5 10.5-24 25.5-9h216zM490 138.998q4-20 13-42t26.5-44.5 44-44.5 67.5-41q-27-6-63-10-31-4-75-6.5t-101-2.5q-29 0-67 2t-79 5.5-81 8.5-73 10-56 10-29 10q-10 8-15.5 49t4.5 106q6.002 37 30.002 56.5t56.5 31 67 20.5 61.5 26q21 13 32.5 25.5t16 24.5 4.5 25-1 29q-2 23-16 36.5t-30.002 27.5q-8 7-14.5 19.5t-11.5 25.5q-5 15-10.002 32-7 2-14.002 7-6.002 5-12.5 14t-11.5 26q-6.002 17-4.5 31t5.5 25 13 21q0 38 4 76 4 32 14.002 69t31 66q19 28 42.5 46t47.5 28 48.5 13.5 47.5 3.5q29 0 56-7t50-18 41-25 29-28q26-32 38-70.5t17-73.5q5-40 5-81 7-5 11-13 4-7 6.5-18t0.5-28q-2-21-8.5-33.5t-14.5-19.5q-9-8-19-11-5-17-10-32-5-13-11.5-25.5t-14.5-19.5q-9-8-14-16t-8-16-6.5-17.5-10.5-19.5q-47-72-54.5-130t5.5-113z" />
<glyph unicode="&#xf1003;" glyph-name="uniF1003" d="M483 139.998q4-19 13-41t26-44.5 44-44.5 67-41q-27-7-62-11-30-4-73.5-7t-100.5-3q-29 0-66.5 2t-78 6-80 9-72.5 10-55.5 10.5-28.5 10.5q-10 8-15.5 49t4.5 105q6 37 30 56t55.5 30.5 66 21 61.5 26.5q21 13 32 25t15.5 24 4.5 25-1 28q-2 24-15.5 37t-30.5 27q-8 7-14 19.5t-11 25.5q-5 15-10 31-7 2-14 7-6 5-12.5 14t-11.5 26-3.5 30.5 5.5 24.5q4 12 12 22 0 38 4 76 4 32 14 68.5t31 65.5q19 27 42 44.5t47 27.5 48.5 14 46.5 4q29 0 55.5-7t49-18 40.5-25 29-28q25-32 37.5-70.5t17.5-72.5q5-40 4-80 7-5 11-13 4-7 6.5-18t0.5-27q-2-22-8.5-34.5t-14.5-19.5q-9-8-19-11-5-16-10-31-5-13-11-25.5t-14-19.5q-9-8-14-15.5t-8-15.5-6.5-17.5-10.5-20.5q-23-36-36-68t-18-61.5-3-57 8-54.5zM995 5.998q14-17 15.5-29t-9.5-23q-6-7-15.5-7.5t-20 3.5-20 10-16.5 12l-70 64q-28-17-59.5-24.5t-63-5.5-61.5 15.5-54 38.5q-28 28-42 63.5t-14 72.5 14 72.5 42 63.5q27 28 62 42t71 14 71-14 63-42q24-25 37.5-56t16-63-5-64-24.5-59l38-38q15-15 28-28.5t17-17.5zM756 67.998q26 0 49 10t40 27.5 27 41 10 50.5-10 50-27 40.5-40 27.5-49 10-49-10-40-27.5-27-40.5-10-50 10-50.5 27-41 40-27.5 49-10z" />
<glyph unicode="&#xf1004;" glyph-name="uniF1004" d="M1000.31 154.234v98.66q-64.942 12.49-66.192 17.484-1.248 6.244-3.746 13.736 3.746 6.244 14.986 17.484l19.982 19.982 9.99 7.494-73.684 97.412q-47.456-38.716-59.946-43.71-7.494 2.5-17.484 4.994-2.5 1.248-8.118 16.86t-10.616 31.846l-4.994 16.234h-98.66q-9.99-59.944-26.226-64.94-7.494-1.248-16.234-4.994-4.994 2.5-19.982 13.736t-27.476 21.23l-11.24 9.99-73.684-98.66q36.216-37.466 38.716-49.954-2.5-6.244-3.746-12.49l-61.196-13.736v-98.66q52.452-11.24 62.442-19.982 2.5-7.494 7.494-16.234l-8.742-8.742q-6.244-6.244-12.49-11.864t-11.24-9.99-8.742-6.868l-3.746-2.5 76.182-98.66q58.698 38.716 68.686 41.214 7.494-3.746 14.986-6.244 3.746-1.248 7.494-16.86t5.62-28.726 1.874-15.612h98.66q3.746 56.198 11.24 58.698l19.982 7.494q3.746-1.248 15.612-11.864t21.856-20.606l9.99-8.742 97.412 98.66q-36.216 24.978-46.208 38.716 4.994 8.742 7.494 17.484 1.248 3.746 17.484 9.368t31.222 8.118zM749.286 79.3q-51.204 0-87.422 36.842t-36.216 88.044 36.216 87.422 87.422 36.216 88.044-36.216 36.842-87.422-36.842-88.044-88.044-36.842zM433.322 485.184q84.924 0 156.734 70.56t71.81 159.234-69.312 162.978-153.61 74.308-154.86-76.182-70.562-164.852q0-87.422 67.438-156.734t152.36-69.312zM483.274 436.476h-226.044q-51.204 0-101.158-28.726t-68.686-88.668q-28.726-88.668-56.198-177.34-11.24-31.222 109.9-48.706t288.49-17.484q19.982 0 28.726 6.244t8.742 19.358-3.746 26.85-8.118 35.592-4.37 39.34q0 44.96 13.738 86.798t28.726 66.192 24.978 44.334 2.5 28.1-37.466 8.118z" />
<glyph unicode="&#xf1005;" glyph-name="uniF1005" d="M912 174.998q5-15 8-38.5t3-47.5-3.5-45-10.5-31q-5-7-28-15t-57.5-15-76.5-13.5-84.5-11.5-81.5-8-68-3q-43 0-103 6t-116.5 15-99.5 18.5-52 16.5q-10 8-15.5 48.5t3.5 104.5q6 37 30.5 56t56.5 30.5 66.5 20 60.5 25.5q19 12 29.5 22.5t16 21 6.5 22 0 24.5l-86 13q-18 12-32 37-12 21-22 57.5t-10 94.5q0 48 5 102.5t24.5 104 58 89 104.5 58.5q38 13 76 13 11 1 21 1.5t21 0.5q49 0 88-20t68-52.5 48.5-73 31.5-82 16.5-80 2.5-65.5q-2-42-12.5-75t-21.5-57q-13-28-29-50l-99-16q-2-27 12-53.5t62-46.5q24-10 53.5-17.5t57-17.5 49-26 29.5-42z" />
<glyph unicode="&#xf1006;" glyph-name="uniF1006" d="M529 947.998q29 0 57.5-6.5t53.5-17.5 44.5-25 30.5-28q26-32 38-70.5t17-73.5q5-40 5-81 7-5 11-13 4-7 6.5-18t0.5-27q-2-21-8.5-33.5t-14.5-19.5q-9-8-19-11-5-17-10-32-5-13-11.5-25.5t-14.5-19.5q-19-15-31-25.5t-16-35.5q-3-15-2-30.5t8.5-31 23-29.5 43.5-25q25-10 54.5-18t57.5-18.5 49.5-26 30.5-42.5q5-16 7.5-39.5t2.5-47.5-3.5-45-10.5-32q-5-7-28.5-14t-58-13.5-77-11.5-85.5-8.5-82.5-5.5-68.5-2-67.5 2-79.5 5.5-81.5 8-73.5 9.5-56 10-29 10q-10 8-15.5 49t4.5 106q5 37 29.5 56.5t57 31 67.5 20.5 62 26q21 13 32 25t16 24 5 25-1 29q-2 23-16 36.5t-31 27.5q-8 7-14 19.5t-11 25.5q-5 15-10 32-7 2-14 7-6 5-13 14t-12 26q-6 17-4.5 31t5.5 24q4 11 13 21-1 38 4 76 4 32 14.5 69t31.5 66q19 28 42.5 45.5t48 27.5 49 13.5 47.5 3.5z" />
<glyph unicode="&#xf1007;" glyph-name="uniF1007" d="M912 170.998q5-15 8-38t3-46.5-3.5-44.5-10.5-32q-5-7-28-14.5t-57.5-15-76.5-14.5-84.5-12-81.5-7.5-68-2.5-66 3-76.5 7.5-78 10.5-70 12.5-53.5 12-28 10.5q-10 8-15.5 48.5t4.5 105.5q6 36 30 55t56 30 66.5 20 60.5 26q19 12 30 23t16 21.5 6.5 21.5 0.5 24l-88 12q-18 13-32 38-12 21-21.5 57.5t-9.5 94.5q0 48 5 102.5t24.5 104 58 89 105.5 59.5q20 7 39 9.5t37 3.5q10 1 20 1h21q50 0 88.5-20t67.5-52 49-73 31.5-82 16-79.5 3.5-65.5q-3-42-13.5-75.5t-21.5-57.5q-13-28-29-50l-98-16q-1-13 1.5-26.5t10.5-26.5 23-25 39-21q24-10 53.5-18t57-18.5 49-26.5 29.5-42zM530 9.998q5 0 15 6.5t20 15.5 17.5 18 7.5 14q0 6-3 21t-7 33-8 35-7 28q10 8 17.5 18t7.5 20q0 8-5.5 16t-12.5 15q-8 7-18 14h-50q-9-7-16-14-6-6-11-14.5t-5-16.5q0-5 7-15t18-20q-3-9-7.5-25.5t-9.5-35-8.5-35-3.5-24.5q0-5 7.5-14t18-18 21-15.5 15.5-6.5z" />
<glyph unicode="&#xf1008;" glyph-name="uniF1008" d="M916 170.998q5-15 7.5-38.5t2.5-47-3.5-44.5-10.5-32q-5-7-28.5-15t-57.5-15.5-76.5-14-84.5-11.5-81.5-8-68.5-3q-44 0-104 6.5t-117 15.5-100 18.5-52 16.5q-11 8-16.5 49t4.5 105q6 37 30 56t56.5 30 67 20 60.5 26q21 13 32.5 25t16 24 4.5 25-1 28q-2 24-15.5 37t-30.5 27q-8 7-14 19.5t-11 25.5q-5 15-10 31-7 2-14 7-6 5-13 14t-12 26-3.5 30.5 5.5 23.5q4 11 12 21-1 38 4 76 4 32 14.5 68t30.5 65q19 27 42.5 44.5t47.5 27.5 48.5 14 47.5 4q29 0 55.5-7t49.5-18 41-24.5 29-27.5q25-32 37.5-70.5t17.5-72.5q6-40 5-80 7-4 11-12 4-7 6.5-18t0.5-27q-3-21-9.5-33.5t-14.5-19.5q-9-8-19-11-4-16-9-31-5-13-11.5-25.5t-14.5-19.5q-9-8-17-13.5t-14-11.5-10-14.5-6-20.5q-3-15-2-30.5t8-31 23-29.5 43-25q25-10 54.5-17.5t57-18 49-26.5 30.5-42zM532 6.998q5 0 15.5 6.5t20.5 15.5 17.5 18 7.5 14q0 6-3 21t-7 33-8 35.5-7 28.5q10 8 17 17.5t7 19.5q0 8-5.5 16.5t-12.5 14.5q-8 7-17 14h-50q-10-7-17-14-6-6-11-14t-5-16q0-6 7.5-16t18.5-19q-3-9-8-26t-9.5-35.5-8-35-3.5-24.5q0-5 7.5-14t18-18 20.5-15.5 15-6.5z" />
<glyph unicode="&#xf1009;" glyph-name="uniF1009" d="M515 49.998q0-38 18.5-64.5t44.5-34.5q-31-2-59-3t-51-1q-29 0-67.5 2t-79.5 5.5-81 8-73 9.5-56 10-29 10q-11 8-16.5 49t4.5 107q4 25 16.5 41t30.5 27.5 40 18.5 45 13.5 44.5 14 39.5 18.5q21 13 32.5 25t16 24 4.5 25-1 29q-2 23-15.5 36.5t-30.5 27.5q-8 7-14.5 19.5t-11.5 25.5q-5 15-10 32-7 2-14 7-6 5-13 14t-12 26-3.5 31 5.5 24q4 11 12 21-1 38 4 76 5 32 15 69t31 66q19 28 42.5 45.5t48 27.5 49 13.5 47.5 3.5q29 0 57.5-6.5t53.5-17.5 44.5-25 31.5-28q25-32 37.5-70.5t17.5-73.5q6-40 5-81 7-5 11-13 4-7 6.5-18t0.5-27q-3-21-9.5-33.5t-14.5-19.5q-9-8-19-11-5-17-10-32-5-13-11-25.5t-14-19.5q-10-8-18-13.5t-14-12-10-14.5-6-21q-2-15-1.5-30.5t8-31 23-29.5 43.5-25q6-2 10-3v-69q-5-1-16-1h-67q-92 0-92-73v-75zM1010 109.998q14-11 14.5-30.5t-10.5-28.5q-17-13-44.5-30.5t-58-36-59-36.5-46.5-33q-23-19-34.5-19.5t-11.5 28.5v49q0 19-9 28t-24 9h-119q-15 0-25.5 7.5t-10.5 25.5v50q0 30 9.5 37t34.5 7q12 0 19-0.5t17-0.5 25-0.5 43-0.5q22 0 31 15.5t9 34.5v48q0 20 9 25.5t26-8.5 46-32 60.5-37 61-37.5 47.5-33.5z" />
<glyph unicode="&#xf100a;" glyph-name="uniF100A" d="M712 696.998q60 0 113-23t92.5-62.5 62.5-92.5 23-114q0-76-34.5-139t-92.5-102q-9 30-28 57 2 2 3 2.5t2 2.5q8 11 8.5 17.5t-14.5 10.5-21.5 4.5-13.5-7.5q-8 5-18 9.5t-19 8.5q2 3 3.5 7.5t-0.5 16.5q-2 14 3.5 20.5t9.5 10.5q2 2-1.5 6t-8.5 8.5-9 9.5-3 10q6 19-4 20.5t-36 0.5q-13 0-19.5-1.5t-17.5 0.5q-9 1-13.5 3t-9 4.5-10.5 4.5-18 2q-17 1-24 2t-10 2-5 1.5-8 0.5q-1 0-2-0.5t-3-0.5q17 23 31 44.5t25 41.5q4-4 9.5-4.5t13-0.5 16-1.5 18.5-7.5q15-4 28-8 11-4 23.5-8t20.5-9q9-6 7.5-15t-6-18.5-7.5-18 4-13.5q9-7 13.5-8.5t9.5-1 13.5 2.5 26.5 2q-5 0-1.5 4t9.5 9.5 13.5 11 12.5 9.5 15.5 6.5 21 6 18.5 9.5 9 17q1 23-4.5 40t-21.5 43q-9 14-16 23t-14 16-14 12-17 11l-20 12q-10 6-21 8t-24.5-2.5-29.5-20.5q-4-5-10.5-11.5t-14-12.5-14.5-10-12-4q-4 0-10.5-0.5t-14.5-2.5q18 51 16 86.5t-14 61.5q9 1 17 1h18zM598 279.998q25-10 54.5-17.5t56.5-18 48.5-26 29.5-41.5q5-15 8-38t3-47-3.5-45-11.5-31q-5-7-28-15t-57-15.5-75.5-14-83.5-11.5-81-7.5-68-2.5-66.5 3-76.5 7.5-77.5 10.5-70 12-53.5 12-28 11q-10 8-15.5 49t3.5 105q6 36 30 54.5t56.5 30 67 20.5 60.5 26q20 13 31 24.5t15.5 23.5 4.5 25-1 28q-2 23-15.5 36t-28.5 27q-8 7-14.5 19t-11.5 25q-5 14-10 31-7 2-14 7-6 5-12.5 14t-11.5 26-3.5 31 5.5 24q4 11 12 21 0 38 4 75 4 32 14 67.5t31 64.5q19 27 42 44.5t47 27.5 48.5 13.5 46.5 3.5q29 0 55.5-6.5t49-17.5 40.5-25 29-28q25-32 37.5-69.5t17.5-71.5q6-40 5-79 6-5 10-13 4-7 6.5-18t0.5-27q-2-21-9-33.5t-14-19.5q-9-8-18-11-5-17-10-31-5-12-11.5-24.5t-14.5-18.5q-9-8-16.5-13.5t-13.5-12-10-14.5-6-20q-3-15-2.5-30.5t8-31 23-29.5 42.5-25zM467 67.998q0 6-3 23t-6.5 36.5-7.5 37.5-6 26q11 9 23 30 2 6-3 14t-13 15q-9 8-21 17h-49q-11-9-19-17-7-7-12-15t-2-13q10-19 18-29-2-6-6-22.5t-9-36-8.5-37.5-3.5-27q0-5 8.5-14.5t20-18.5 22.5-16 16-7 15.5 6.5 20.5 15.5 17.5 18 7.5 14z" />
<glyph unicode="&#xf100b;" glyph-name="uniF100B" d="M628 387.998q32 52 48.5 105.5t14.5 106.5q-1 45 0.5 84.5t4.5 73.5h238q29 0 47.5-16t18.5-45v-309h-372zM599 279.998q24-10 53.5-17.5t57-18 49-26.5 29.5-42q5-15 8-38t3-46.5-3.5-44.5-10.5-32q-5-7-28-15t-57.5-15.5-76.5-14-84-11.5-81-7.5-68-2.5-66 3-76.5 7.5-78 10.5-70 12-53.5 12-28 11q-10 8-15.5 49t3.5 105q6 36 30.5 55t56.5 30 66.5 20 60.5 26q21 13 32 24.5t16 23.5 5 25-1 29q-2 23-16 36t-31 26q-8 7-14 19.5t-11 25.5q-5 15-10 31-7 2-14 7-6 5-12.5 14t-11.5 26-3.5 30.5 5.5 23.5q4 11 12 21-1 38 4 75 4 32 14.5 67.5t30.5 64.5q19 28 42 45.5t47 27.5 48.5 13.5 46.5 3.5q29 0 55.5-6.5t49.5-17.5 40.5-25 28.5-28q26-32 38-70t17-72q5-40 5-79 7-4 11-12 4-7 6.5-18t0.5-27q-2-21-9-33.5t-14-19.5q-9-8-18-11-5-17-10-31-5-13-12-25t-15-19q-9-8-16.5-13.5t-13.5-12-10-14.5-6-20q-2-15-1.5-30.5t8-30.5 23-29 42.5-25zM467 67.998q0 6-3 22.5t-6.5 36-7.5 37.5-6 26q15 11 23 31 2 6-2.5 13.5t-12.5 14.5q-9 8-21 17h-50q-11-9-19-17-7-7-11.5-14.5t-2.5-12.5q5-10 9-17t9-13q-2-6-6-22.5t-9-36-8.5-37-3.5-26.5q0-5 8.5-14.5t20-19 22.5-16.5 16-7q6 0 16 6.5t20 15.5 17.5 18 7.5 15zM986 322.998q7 0 10.5-9.5t3.5-19.5q0-11-3.5-21.5t-10.5-10.5h-204q-14 22-30.5 37t-33.5 24h268z" />
<glyph unicode="&#xf100c;" glyph-name="uniF100C" d="M916 163.998q5-15 7.5-38.5t2.5-47.5-3.5-45-10.5-32q-5-7-27.5-14t-55.5-13.5-74-11.5-82-9-79.5-6-67.5-2-67 2.5-78.5 6-80 8-72.5 9.5-55.5 10-28.5 10q-10 8-15.5 49t3.5 106q6 37 30 56t56 30.5 66.5 20.5 61.5 26q21 13 32 25t16 24 5 25-1 29q-2 23-16 36.5t-30 27.5q-8 7-14.5 19.5t-11.5 25.5q-5 15-10 32-9 1-18 6-8 5-16 14.5t-13 26.5-2.5 31 8.5 24q6 11 17 21 0 38 4 76 4 32 14 68.5t31 65.5q19 28 42 45.5t47.5 27.5 48.5 13.5 47 3.5q29 0 55.5-6.5t49-17.5 40.5-25 30-28q25-32 37.5-71t17.5-73q5-40 4-80 9-5 15-13 5-7 9-18t2-27q-2-22-10-34t-17-19q-11-8-23-11-5-17-10-32-5-13-11.5-25.5t-14.5-19.5q-18-15-30-25.5t-16-35.5q-3-15-2.5-30.5t8-31 23-29.5 43.5-25q24-10 53.5-18t57-18.5 49-26 30.5-42.5zM529 381.998q18 0 31 13t13 32-13 32-31 13q-19 0-32-13t-13-32 13-32 32-13zM566 562.998q-1 12 14 25.5t34 29.5 35 36.5 18 46.5q1 28-6 53t-24 43.5-43.5 29-62.5 10.5q-44 0-74-16t-48-38-25-46.5-7-40.5q1-19 12-27.5t24.5-9 24.5 7.5 11 22q0 9 5.5 21.5t15 24.5 23 20 29.5 8q33 0 52.5-16.5t18.5-41.5q0-19-15.5-33.5t-34-29.5-34.5-32-17-40v-27q1-11 11-21t27-11q17 1 26.5 11t9.5 24v17z" />
<glyph unicode="&#xf100d;" glyph-name="uniF100D" d="M581.26 537.696q-46.552-19.302-84.588-50.526t-66.422-72.098-43.714-89.13-15.328-101.62q0-46.552 12.488-89.13t34.062-81.182h-24.98q-7.948 0-27.818 0.568t-32.358 0.568h-288.394q-3.406 0-6.244 13.626t-5.11 40.874-3.406 29.522q-4.542 37.47 4.542 96.51 3.406 22.708 14.76 36.9t27.25 24.98 35.766 17.030 40.874 11.924 40.308 12.49 35.198 17.030q19.3 11.356 29.522 22.708t14.76 22.14 4.54 22.14-1.134 26.116q-1.134 20.438-14.192 32.928t-27.818 24.98q-6.812 5.676-13.056 17.030t-10.786 23.844-9.082 27.25q-5.676 2.272-12.49 6.812-4.54 4.542-11.354 12.488t-11.354 23.276-3.406 27.818 5.676 22.708q3.406 10.218 11.354 19.302 0 34.062 4.54 68.124 3.406 28.384 12.49 61.88t27.25 59.61q18.168 24.98 39.172 40.874t43.144 24.98 44.282 12.488 42.58 3.406q26.116 0 52.228-6.244t48.254-15.896 39.74-22.14 27.818-26.116q23.842-28.384 34.63-63.014t15.328-66.422q4.542-36.334 4.542-72.668 5.676-4.542 9.082-11.356 4.542-6.812 6.812-16.464t0-24.412q-2.272-20.438-7.948-31.224t-12.49-17.598q-7.948-6.812-17.030-10.218-2.272-4.54-3.406-11.356l-4.542-12.488zM709.562 509.31q59.042 0 110.702-22.708t89.698-61.312 60.744-90.834 22.708-110.702-22.708-110.134-60.744-90.266-89.698-60.744-110.702-22.14-111.27 22.14-90.266 60.744-60.744 90.266-22.708 110.134 22.708 110.702 60.744 90.834 90.266 61.312 111.27 22.708zM875.332 279.958q5.676 18.168-4.542 32.928t-27.818 21.004-34.63 1.134-24.98-27.818q-4.542-15.896-7.948-28.384-4.542-13.626-8.516-27.818t-9.65-31.224-14.76-38.604q-9.082-22.708-26.116-21.572t-26.116 19.302-18.168 38.604q-9.082 21.572-17.030 40.874t-14.192 35.766-10.786 26.682q-6.812 13.626-23.842 15.328t-32.36-4.542-26.116-21.004-2.84-31.79q5.676-18.168 14.192-40.308t17.6-45.984 17.030-46.552 13.626-38.604q13.626-34.062 41.442-51.094t57.906-18.168 57.338 13.626 39.74 43.144q10.218 23.842 20.438 49.39t20.438 50.526q9.082 23.842 17.030 46.552t13.626 38.604z" />
<glyph unicode="&#xf100e;" glyph-name="uniF100E" horiz-adv-x="806" d="M804.572 157.142q0-68.572-41.714-108.286t-110.856-39.714h-499.428q-69.144 0-110.856 39.714t-41.714 108.286q0 30.286 2 59.144t8 62.286 15.144 62 24.57 55.714 35.43 46.286 48.856 30.572 63.714 11.428q5.144 0 24-12.286t42.57-27.43 61.714-27.428 76.286-12.286 76.286 12.286 61.714 27.428 42.572 27.428 24 12.286q34.856 0 63.714-11.428t48.856-30.57 35.428-46.286 24.572-55.714 15.144-62 8-62.286 2-59.144zM621.714 667.426q0-90.856-64.286-155.144t-155.144-64.286-155.144 64.286-64.286 155.142 64.286 155.144 155.144 64.286 155.144-64.286 64.286-155.144z" />
<glyph unicode="&#xf100f;" glyph-name="uniF100F" d="M516.5 519.998q72.5 0 123.5 51t51 123.5-51 124-123.5 51.5-124-51.5-51.5-124 51.5-123.5 124-51zM809 251.998v35q0 82-58 140t-140 58h-198q-82 0-140-58t-58-140v-179q0-16 11-26.5t26-10.5h522q16 0 27 10.5t11 26.5v139q0 3-1 4.5t-2 0.5z" />
<glyph unicode="&#xf1010;" glyph-name="uniF1010" d="M644.592 852.772q25.298-5.5 41.798-26.948t18.698-53.346q0-9.9 1.1-30.798t1.1-43.998-1.65-41.796-6.048-23.098q-6.6-7.7-12.65-7.148t-6.048-6.048q0-3.3-1.65-23.098t-9.35-54.996q-4.4-18.698-12.65-33.548t-17.048-26.948q-11-13.2-21.998-24.2-1.1-14.298-1.1-27.496v-23.098q0-12.1 1.1-18.698 1.1-13.198 6.6-18.698t21.998-9.9q5.5-2.202 19.798-6.6t34.098-11.55 41.248-14.85 41.248-14.85 35.198-13.198 23.098-9.35q21.998-11 29.148-23.098t12.65-30.798q2.202-9.9 6.048-36.298t8.25-54.996 7.15-53.898 3.85-31.898q1.1-14.298-4.95-24.198t-28.048-15.4q-18.698-4.4-54.446-9.35t-83.044-9.35-103.942-7.15-119.342-2.75-119.894 2.202-105.044 6.048-84.694 8.798-57.748 10.448q-4.4 1.1-11 4.4t-12.65 8.25-9.35 12.1-2.2 15.948q1.1 7.7 6.050 34.648t11.55 57.746 12.098 57.746 7.7 33.548q4.4 13.198 12.65 27.496t28.050 29.698q9.9 7.7 36.298 16.5t54.998 16.5 53.896 13.198 32.998 7.7q16.5 3.3 29.148 8.25t12.65 13.75v63.796q-12.098 9.9-23.098 21.998-9.9 9.9-19.798 23.65t-17.598 29.148q-15.4 29.698-19.798 54.446t-5.5 29.148-8.25 7.15-10.45 11.55q-8.798 18.698-8.25 39.596t2.75 59.396q3.3 38.496 12.65 73.696t41.248 64.896q16.5 14.298 43.998 23.65t56.096 13.75 54.446 4.4 39.048-3.3q14.298-4.4 23.098-9.348t13.75-9.35 8.25-8.25 6.6-6.048q5.5-4.4 14.298-2.75t30.798-2.75zM543.4 250.012l29.698-114.394 48.396 129.792-46.198 32.998zM464.204 300.608l-43.998-35.198 49.498-129.79 26.398 115.492zM855.778 730.68q15.4-2.202 24.748-15.4t10.448-31.898q0-5.5 1.1-18.148t1.1-25.85-1.1-24.748-3.3-13.75q-4.4-4.4-8.25-3.85t-3.85-3.85q0-2.202-0.55-13.75t-6.048-33.548q-2.202-11-6.6-19.798t-9.9-15.4q-5.5-7.7-13.198-14.298-1.1-8.798-1.1-16.5v-25.298q1.1-7.7 4.4-11t13.198-5.5q4.4-1.1 20.9-6.6t35.746-12.65 35.746-13.198 23.098-9.35q13.198-6.6 18.148-13.75t7.15-19.25q1.1-5.5 3.3-20.9t4.4-32.998 4.4-31.898 2.202-18.698q1.1-8.798-2.75-14.85t-17.048-8.25q-11-2.202-28.6-5.5t-46.198-5.5q-2.202 13.198-6.6 25.298-3.3 11-7.7 23.098t-11 20.9q-12.1 16.5-25.298 26.398t-26.398 16.5-26.398 10.448-26.398 8.25q-56.096 19.798-90.194 27.496t-38.496 13.198q-2.202 3.3-2.75 7.7t-0.55 9.9 1.1 12.1q15.4 4.4 23.098 5.5t12.1 2.202q8.798 2.202 16.5 4.95t7.7 8.25v38.498l-6.6 3.3q-2.202 1.098-4.4 5.5 6.6 14.298 13.198 34.098 5.5 17.598 11.55 42.898t10.448 60.496q3.3 27.496 4.4 49.496t1.1 38.496v34.098q13.198 2.202 28.048 2.202t23.65-2.202q18.698-5.5 22.548-11t8.25-8.798q4.4-2.202 9.35-1.65t18.148-1.65zM799.682 378.704l7.7-29.698 19.798-6.6 15.4 39.596-23.098 19.798zM742.486 398.502l-18.698-18.698 1.1-4.4 34.098-9.9 4.4 12.1zM254.118 754.878q-17.598 2.202-35.198 1.1-15.4-1.1-33.548-5.5t-33.548-15.4q-13.2-8.8-20.9-20.9t-11.55-24.748-4.95-23.65-1.1-17.6q-1.1-14.298-2.2-25.848t1.1-20.348 3.3-12.1 4.4-5.5 5.498-2.75 4.398-14.85q1.098-14.298 7.15-28.048t12.65-22.548q3.3-5.498 8.25-10.448t9.348-10.45 11-11v-31.898q-1.098-6.6-4.95-11t-14.848-6.6q-5.498-1.1-18.148-4.4t-27.496-7.15-29.698-8.25-23.65-7.7q-31.898-15.4-38.496-52.796-4.4-17.6-9.898-43.996t-7.7-37.398 0.55-23.098 18.148-15.4q7.7-2.202 19.25-3.3t22.548-3.3q12.098-2.202 25.298-3.3 2.2 13.198 6.6 26.398 3.3 12.1 9.35 24.198t14.85 23.098q8.798 9.9 21.448 19.25t24.748 18.148q13.2 9.9 28.598 18.698l-11 27.496 24.2 18.698 25.3-28.6 13.2 3.3q2.2 0 6.6 2.202 2.2 1.1 4.4 1.1l20.9 24.198 18.698-15.4q5.5 1.1 9.9 2.202t9.9 2.202l11 2.202q12.098 2.202 20.348 4.4t9.348 11q0 4.4 0.55 7.15t0.55 4.95v3.3q-9.9 3.3-18.698 6.6l-15.4 4.4q-7.7 2.202-12.098 4.4-8.798 3.3-9.9 9.348t-1.098 15.95v11q0 5.5 1.098 11 0 5.5 1.098 13.2-8.798 13.2-17.598 28.598-7.7 13.198-14.848 30.248t-11.55 35.748q-5.498 25.298-7.7 53.896t-1.098 51.698q0 27.496 3.3 53.896z" />
<glyph unicode="&#xf1011;" glyph-name="uniF1011" d="M1041.142 417.656q-60.682 59.468-140.78 80.098-1.214 1.214-3.64 1.214h-4.854q-2.428 0-4.854-1.214-24.272-13.348-58.86-13.348t-60.076 13.348q-1.214 1.214-3.64 1.214h-6.068q-33.982-8.496-66.75-25.486-16.99-60.682-60.682-104.372h404.14q9.71 0 9.71 9.708v32.768q0 3.64-3.642 6.068zM725.6 644.606q0-7.282 4.854-12.742t12.138-5.462q2.428-36.408 27.308-65.536t57.648-29.126 57.648 29.126 28.52 65.536q7.282 0 12.136 5.462t4.854 12.742q0 10.924-9.708 15.778 4.854 16.99 4.854 33.982 0 43.692-28.52 74.032t-69.178 30.342-69.178-30.342-28.52-74.032q0-16.99 4.854-33.982-9.708-4.854-9.708-15.778zM329.954 475.912q-27.914 14.562-58.254 21.846-1.214 1.214-3.642 1.214h-4.854q-2.428 0-4.854-1.214-24.272-13.348-58.86-13.348t-58.86 13.348q-2.426 1.214-4.854 1.214h-6.068q-81.314-20.632-143.21-81.314-3.64-2.428-3.64-6.068v-32.768q0-9.708 9.708-9.708h399.284q-44.906 43.692-61.894 106.8zM96.938 644.606q0-7.282 4.854-12.742t12.138-5.462q3.642-36.408 28.522-65.536t57.648-29.126 57.648 29.126 27.308 65.536q7.282 0 12.138 5.462t4.854 12.742q0 10.924-9.71 15.778 4.854 16.99 4.854 33.982 0 43.692-28.522 74.032t-69.178 30.342-69.178-30.342-28.522-74.032q0-16.99 4.854-33.982-9.71-4.854-9.71-15.778zM337.238 552.37q0-13.35 7.888-22.452t20.024-9.102h1.214q2.428-44.904 27.914-86.166 9.71-14.562 21.844-27.914 42.476-47.332 94.664-47.332 57.040 0 100.73 52.188l9.708 12.136q31.554 44.904 35.196 97.090h1.214q10.924 0 19.418 9.102t8.496 22.452q0 19.418-16.99 27.914 9.708 27.914 9.708 57.040 0 74.032-49.152 126.218t-117.724 52.188-117.724-52.188-49.152-126.218q0-29.126 9.71-57.040-16.99-8.496-16.99-27.914zM635.79 309.644q-3.64 2.428-7.282 2.428h-8.496q-3.64 0-7.282-2.428-42.476-23.058-101.338-23.058t-101.338 23.058q-3.642 2.428-7.282 2.428h-6.068q-2.428 0-3.642-1.214-139.568-32.768-246.366-137.14-4.854-4.854-4.854-12.138v-55.826q0-6.068 4.854-10.924t10.924-4.854h707.548q6.068 0 10.924 4.854t4.854 10.924v55.826q0 7.282-4.854 12.136-104.372 101.944-240.298 135.926z" />
<glyph unicode="&#xf1012;" glyph-name="uniF1012" d="M679.592 274.938q-20.626 2.58-36.096 7.736t-23.85 12.246-14.18 14.18-7.090 14.18-1.288 12.892 0.644 9.67-0.644 5.154l1.288 45.12q6.444 2.58 15.47 9.024t29.004 27.072 27.716 41.252q3.866 3.868 12.892 9.024t11.602 7.090 7.090 5.802 6.444 7.736 3.226 9.024q-1.288 1.288-0.644 7.736t-0.644 18.048-3.866 21.914-8.38 18.048-13.538 7.736h-2.58t-4.512 3.866-0.644 11.602q6.444 27.072 0 91.528 0 2.58-0.644 14.824t-1.934 19.982-4.512 18.692-10.956 18.048-18.048 9.67q-15.47 2.58-27.716 0.644t-16.116-1.934q-5.154 1.288-22.562 25.784t-31.582 24.494l-51.564-21.914q-14.18 0-22.562-4.512t-12.248-4.512q-29.652-5.154-37.384-6.444-25.784-5.154-39.964-30.298t-15.47-47.052q-7.736-69.614-6.444-103.134 2.58-7.736-3.226-12.248t-12.248-4.512l-6.444-1.288q-15.47 1.288-15.47-72.192 0-1.288 0.644-5.802t1.288-5.802 1.288-4.512 1.934-4.512 3.226-4.512 4.512-4.512 5.802-3.868 7.736-4.512 10.956-4.512q7.736-21.916 27.072-39.964t34.808-24.494l16.758-7.736q1.288-30.94 2.58-52.856-2.58 0-0.644-5.154t-1.934-14.826-10.312-19.336-27.072-19.336-51.564-13.538q-113.444-16.758-132.784-72.192-16.758-41.254-16.758-165.012l639.424 1.288q1.288 143.096-19.336 163.722-2.58 2.58-14.826 16.758t-21.27 21.27-36.096 17.404-65.746 16.758zM1157.868 40.31q-1.288 10.312-3.866 28.362t-18.048 53.5-37.384 48.346l-9.024 9.024q-9.024 10.312-14.18 14.18t-18.048 11.602-31.584 12.246-41.896 8.38q-18.048 2.58-30.94 7.090t-19.982 9.67-11.602 10.312-5.802 10.956-1.288 9.67v6.444l1.288 3.866 2.58 34.808q34.808 23.206 47.7 59.302 9.024 6.444 10.312 10.312t-0.644 9.024-0.644 10.312q1.288 1.288 1.288 32.228t-10.312 24.494h-5.154q-2.58 0-5.802 2.58t-1.934 9.024q6.444 33.52 3.866 69.614-1.288 2.58-1.288 11.602t-1.288 15.47-3.226 14.826-7.736 13.538-14.826 7.736h-10.312l1.288-1.288h-3.866q-3.866 1.288-17.404 10.958t-23.85 9.67l-39.964-6.444q-10.312 0-16.758-3.224t-9.024-3.226q-23.206-3.866-29.652-5.154-10.312-1.288-16.116-9.024t-7.090-13.538-1.288-16.116v-12.892q0-3.866 2.58-74.772 1.288-5.154-0.644-9.67t-4.512-7.090l-1.288-1.288q-10.312 1.288-10.312-55.434 0-3.866 0.644-9.67t1.288-8.38 5.802-6.444 15.47-7.736q5.154-16.758 13.538-30.94t13.538-19.336l5.154-5.154q1.288-25.784 1.288-42.544 9.024-5.154 15.47-10.956t10.956-9.67 10.312-10.956 8.38-10.956 8.38-12.892 8.38-11.602q21.914-25.784 21.914-172.748h277.17zM237.408 280.096l1.288 42.544q27.072 18.048 39.964 55.434 12.892 5.154 16.758 8.38t3.868 12.246v11.602l1.288 38.676q-2.58 16.758-10.312 16.758-2.58 0-4.512 1.288t-5.802 6.444-2.58 10.312q2.58 61.878 1.288 74.772v12.892q0 10.312-1.288 16.116t-7.090 13.538-16.116 9.024q-6.444 1.288-28.362 5.154-3.866 0-7.736 3.226t-15.47 3.224l-38.674 6.444q-11.602 0-25.138-9.67t-16.116-10.958q-5.156 0-3.868 1.288h-10.312q-7.736-2.58-13.538-7.736t-8.38-13.538-3.868-14.826-1.288-15.47v-11.602q-5.156-46.408 0-69.614 1.288-6.444 0-9.024t-3.868-2.58h-2.58q-9.024 0-14.18-12.248t-5.156-25.138v-11.602q1.288-3.866 0.646-12.246t2.58-13.538 12.246-11.602q3.868-10.312 10.312-19.982t12.246-16.758 11.602-12.246 9.67-7.736l3.868-2.58-1.288-34.808v-6.444q0-2.58-0.644-6.444t-2.58-7.736-4.512-8.38-7.736-9.024-11.602-7.736-16.116-6.444-21.27-5.802q-23.206-3.866-41.254-8.38t-30.94-12.246-18.692-11.602-14.826-14.18l-9.024-9.024q-27.072-15.47-41.896-48.346t-16.758-57.368-0.644-25.784h277.17q0 109.578 23.206 174.038 2.58 5.154 8.38 14.826t9.67 14.18 10.312 12.246 13.538 13.538 16.116 12.246z" />
<glyph unicode="&#xf1013;" glyph-name="uniF1013" d="M1024-2.562c0 0-1.998 193.894-13.874 213.966-17.664 29.952-58.674 50.482-134.862 82.328-75.928 31.744-100.25 58.574-100.25 115.866 0 34.456 23.192 23.192 33.384 86.222 4.198 26.162 24.678 0.462 28.622 60.11 0 23.808-11.16 29.746-11.16 29.746s5.632 35.226 7.886 62.312c2.766 33.792-17.048 120.984-122.472 120.984s-125.134-87.246-122.418-120.984c2.202-27.086 7.832-62.312 7.832-62.312s-11.16-5.938-11.16-29.746c3.942-59.698 24.424-33.998 28.672-60.11 10.136-63.026 33.33-51.762 33.33-86.222 0-38.962-11.264-63.846-42.342-85.71 165.888-83.048 188.16-99.994 188.16-174.234l-0.002-152.216h230.656zM523.47 264.958c-101.326 42.29-133.632 78.030-133.632 154.472 0 45.874 30.926 30.926 44.494 114.994 5.582 34.866 32.974 0.562 38.144 80.128 0 31.744-14.898 39.63-14.898 39.63s7.576 46.952 10.546 83.096c3.686 44.954-22.734 161.28-163.278 161.28s-166.912-116.274-163.224-161.28c2.968-36.146 10.496-83.096 10.496-83.096s-14.85-7.886-14.85-39.63c5.272-79.616 32.562-45.312 38.194-80.128 13.568-84.072 44.494-69.070 44.494-114.994 0-76.442-32.408-112.178-133.632-154.472-30.874-12.904-86.322-32.922-86.322-80.946v-186.574h711.374c0 0 0 110.336 0 139.826 0 43.88-86.376 85.198-187.904 127.694z" />
<glyph unicode="&#xf1014;" glyph-name="uniF1014" d="M718 193.998q-8 1-13 15.5t-5.5 23.5-0.5 14q6 6 15.5 17t27.5 43.5 23 64.5q16 0 26.5 20t9.5 45-16 38q0 1 1.5 17.5t2 29.5-1 35.5-6.5 39.5-17 37-29 33-45.5 21.5-64.5 8.5-64.5-8.5-45.5-21.5-29-33-17-37-6.5-39.5-1-35.5 2-29.5 1.5-17.5q-15-13-16-38t9.5-45 26.5-20q5-32 23-64.5t27.5-43.5 15.5-17q0-51-19-53-25-4-69.5-23t-93-47-84-67.5-35.5-76.5h750q0 37-35.5 76.5t-84 67.5-93 47-69.5 23zM336 175.998q67 42 138 66-29 42-43 87-23 19-35 52t-9 68q3 24 14 44-12 129 51 200 34 38 86 54-14 138-163 138-36 0-64.5-9t-45.5-22-29-32.5-17-37-6.5-39.5-1-35.5 2-29.5 1.5-17q-15-13-16-38t9.5-45 26.5-20q5-32 22-63.5t30-47 14-15.5q0-50-19-53-25-4-69.5-23t-93-47-84-67-35.5-76h322z" />
<glyph unicode="&#xf1015;" glyph-name="uniF1015" d="M462 317.998q-2-11-5-17t-14-13q-26-16-56-26t-57.5-22-48-31.5-25.5-55.5q-2-11-2.5-21.5t-1.5-19.5q-1-2-2-3.5t-2-3.5q-39 3-79 7t-73.5 9-56.5 10-29 10q-9 7-13.5 42t3.5 91q5 31 25.5 47.5t48.5 26 57.5 17.5 52.5 22q18 12 27.5 22t13.5 20.5 4 21.5-1 24q-2 20-13.5 31.5t-25.5 23.5q-8 5-13.5 16t-9.5 22q-4 12-8 27-6 2-12 6-5 4-10.5 12t-10.5 22-4 26.5 5 21.5q4 11 11 18-1 32 3 65 4 27 13 58t27 56q16 24 36 39t40.5 23.5 41.5 11.5 41 3q50 0 90-21t60-45q13-17 16.5-31.5t9.5-33.5q-19-11-40.5-32.5t-37.5-43.5q-20-28-30-62t-15-63q-5-35-5-70-8-9-12-20-4-10-5-23.5t4-29.5q5-17 11-26t11-14q6-6 12-8 4-16 8-30 4-12 9.5-24.5t13.5-18.5q7-6 11-10t6.5-7.5 3-9.5 2.5-16zM995 133.998q4-14 6.5-34t2.5-40.5-3-38.5-9-27q-4-6-23.5-12t-48.5-11-64-9.5-70.5-7.5-68.5-5-58-2-57.5 2-67.5 5-69 6.5-62.5 8-48 9-24.5 8.5q-8 7-13 42t3 90q5 32 25.5 48t48.5 26 57.5 17.5 52.5 22.5q18 12 27.5 22t14 20 4.5 21-1 25q-2 20-14 31.5t-26 22.5q-7 6-12.5 17t-9.5 22q-4 12-8 27-6 2-12 6-5 4-10.5 12t-10.5 22-4 26.5 5 20.5q4 10 11 18-1 32 3 65 4 28 12.5 58.5t26.5 56.5q16 24 36 39t41 23.5 42 11.5 40 3q51 0 91-21t59-45q22-27 32.5-60.5t15.5-62.5q5-34 4-68 5-4 9-11 3-6 5.5-15.5t0.5-23.5q-2-18-8-29t-12-17q-7-7-16-9-4-15-8-27-4-11-10-22t-13-16q-8-7-14.5-12t-11.5-10.5-8.5-12.5-5.5-17q-2-13-1.5-26.5t6.5-26.5 19.5-25 37.5-21q21-9 46.5-15.5t49-15.5 42-23 26.5-36z" />
<glyph unicode="&#xf1016;" glyph-name="uniF1016" d="M512-64.002q-104 0-199 40.5t-163.5 109-109 163.5-40.5 199 40.5 199 109 163.5 163.5 109 199 40.5 199-40.5 163.5-109 109-163.5 40.5-199-40.5-199-109-163.5-163.5-109-199-40.5zM512 895.998q-185 0-316.5-131.5t-131.5-316.5 131.5-316.5 316.5-131.5 316.5 131.5 131.5 316.5-131.5 316.5-316.5 131.5zM512 759.998q-77 0-131-53.5t-54-129.5 54-130 131-54 131 54 54 130-54 129.5-131 53.5zM512 445.998q-55 0-93.5 38.5t-38.5 92.5 38.5 92.5 93.5 38.5 93.5-38.5 38.5-92.5-38.5-92.5-93.5-38.5zM512 445.998q-109 0-186.5-77t-77.5-185h53q0 87 62 148t149 61 149-61 62-148h53q0 108-77.5 185t-186.5 77z" />
<glyph unicode="&#xf1017;" glyph-name="uniF1017" d="M517 945.998q98 0 187.5-38t154-102.5 102.5-154 38-187.5-38-187-102.5-153.5-154-102.5-187.5-38v206h292q-15 92-71 161.5t-135 95.5l-86-98v106q60 0 101.5 42t41.5 101-41.5 101-101.5 42v206zM517-17.002q-98 0-187 38t-153.5 102.5-102.5 153.5-38 187 38 187.5 102.5 154 153.5 102.5 187 38v-206q-59 0-101-42t-42-101 42-101 101-42v-106l-86 98q-79-26-134.5-95.5t-71.5-161.5h292v-206z" />
<glyph unicode="&#xf1018;" glyph-name="uniF1018" d="M512 959.998q-139 0-257-68.5t-186.5-186.5-68.5-257 68.5-257 186.5-186.5 257-68.5 257 68.5 186.5 186.5 68.5 257-68.5 257-186.5 186.5-257 68.5zM820 168.998q-30 15-53.5 19t-63.5 20q-100 41-100 44v76l9 8q5 6 15.5 30.5t14.5 56.5q13-4 19.5 9t7.5 30q0 2 1 13.5t1.5 18.5 0 16.5-4.5 13.5-10 3q8 64 6 84-5 50-41.5 86t-108.5 39q-63-3-105-40.5t-47-84.5q-2-21 7-84-7 1-10.5-3t-4-13.5-0.5-17 1-18.5 2-13q1-17 7-30t19-10q4-31 14-55t18-32l7-7v-77q-20-11-100-45-40-16-63.5-19t-53.5-18q-108 119-108 279 0 113 55.5 209t151.5 151.5 209 55.5 209-55.5 151.5-151.5 55.5-209q0-160-108-279z" />
<glyph unicode="&#xf1019;" glyph-name="uniF1019" d="M864 959.998h-768q-40 0-68-28t-28-68v-832q0-40 28-68t68-28h768q40 0 68 28t28 68v832q0 40-28 68t-68 28zM832 63.998h-704v768h704v-768zM256 383.998h448v-64h-448v64zM256 255.998h448v-64h-448v64zM320 671.998q0 40 28 68t68 28 68-28 28-68-28-68-68-28-68 28-28 68zM480 575.998h-128q-40 0-68-19t-28-45v-64h320v64q0 26-28 45t-68 19z" />
<glyph unicode="&#xf101a;" glyph-name="uniF101A" horiz-adv-x="1152" d="M992 884.998q61 0 97.5-31t36.5-94v-555q0-27-10-51t-27.5-42-41-28.5-49.5-10.5h-872q-26 0-49 10t-40 26.5-27 38.5-10 47v567q0 54 33 88.5t93 34.5h866zM281 699.998q-19 0-36-7t-30-19.5-20.5-30-7.5-37.5 7.5-37 20.5-30 30-20.5 36-7.5q21 0 38.5 7.5t30 20.5 20 30 7.5 37q0 41-27 67.5t-69 26.5zM438 353.998q0 19-7.5 36.5t-20 30-30 20-36.5 7.5h-125q-39 0-66-27.5t-27-66.5v-94h312v94zM902 254.998q20 0 29.5 10t9.5 24-11 24.5-31 10.5h-298q-20 0-30-10.5t-10-24.5 10-24 29-10h302zM903 383.998q20 0 29 10t9 24q0 15-8.5 25t-28.5 10h-306q-20 0-29-10t-9-25q0-14 8.5-24t28.5-10h306zM904 510.998q15 0 26 10t11 24-11 22.5-26 8.5h-203q-15 0-25.5-8.5t-10.5-22.5 10.5-24 25.5-10h203z" />
<glyph unicode="&#xf101b;" glyph-name="uniF101B" d="M832 137.14h-640c-106.048 0-192 85.952-192 192v320c0 106.048 85.952 192 192 192h640c105.984 0 192-85.952 192-192v-320c0-106.048-86.016-192-192-192zM512 713.14h-384v-448h384v448zM880 713.14h-304v-64h304v64zM880 585.14h-304v-64h304v64zM880 457.14h-304v-64h304v64zM880 329.14h-304v-64h304v64zM320 649.14c70.656 0 128-43.008 128-96s-57.344-96-128-96-128 43.008-128 96 57.344 96 128 96zM448 329.14h-256l128 128 128-128z" />
<glyph unicode="&#xf101c;" glyph-name="uniF101C" d="M921.6 857.598h-819.2c-56.32 0-102.4-46.080-102.4-102.4v-614.4c0-56.32 46.080-102.4 102.4-102.4h819.2c56.37 0 102.4 46.080 102.4 102.4v614.4c0 56.32-46.030 102.4-102.4 102.4zM921.6 140.798h-819.2v614.4h819.2v-614.4zM460.8 340.478h-256v-92.16h256v92.16zM460.8 494.078h-256v-92.16h256v92.16zM460.8 647.678h-256v-92.16h256v92.16zM814.080 319.998c0 0-87.040 22.734-87.040 67.48 0 42.6 56.37 60.52 56.37 147.558 0 70.656-21.504 112.64-92.21 112.64s-92.16-41.934-92.16-112.64c0-87.040 56.32-104.96 56.32-147.558 0-44.75-86.99-67.48-86.99-67.48-5.17 0-5.17-71.68-5.17-71.68h256c0 0 0 71.68-5.12 71.68z" />
<glyph unicode="&#xf101d;" glyph-name="uniF101D" d="M1024 246.854v-182.856q0-22.856-16-38.856t-38.856-16h-182.856q-22.856 0-38.856 16t-16 38.856v182.856q0 22.856 16 38.856t38.856 16h54.856v109.714h-292.572v-109.714h54.856q22.856 0 38.856-16t16-38.856v-182.856q0-22.856-16-38.856t-38.856-16h-182.856q-22.856 0-38.856 16t-16 38.856v182.856q0 22.856 16 38.856t38.856 16h54.856v109.714h-292.572v-109.714h54.856q22.856 0 38.856-16t16-38.856v-182.856q0-22.856-16-38.856t-38.856-16h-182.856q-22.856 0-38.856 16t-16 38.856v182.856q0 22.856 16 38.856t38.856 16h54.856v109.714q0 29.714 21.714 51.428t51.43 21.714h292.572v109.714h-54.856q-22.856 0-38.856 16t-16 38.856v182.856q0 22.856 16 38.856t38.856 16h182.856q22.856 0 38.856-16t16-38.856v-182.856q0-22.856-16-38.856t-38.856-16h-54.856v-109.714h292.572q29.714 0 51.428-21.714t21.714-51.428v-109.714h54.856q22.856 0 38.856-16t16-38.856z" />
<glyph unicode="&#xf101e;" glyph-name="uniF101E" d="M960 191.998v320h-384v192h64v256h-256v-256h64v-192h-384v-320h-64v-256h256v256h-64v192h256v-192h-64v-256h256v256h-64v192h256v-192h-64v-256h256v256h-64zM192-0.002h-128v128h128v-128zM576-0.002h-128v128h128v-128zM448 767.998v128h128v-128h-128zM960-0.002h-128v128h128v-128z" />
<glyph unicode="&#xf101f;" glyph-name="uniF101F" d="M960-64.002h-64q-27 0-45.5 18.5t-18.5 45.5v64q0 26 18.5 45t45.5 19v256h-320v-256q26 0 45-19t19-45v-64q0-27-19-45.5t-45-18.5h-64q-27 0-45.5 18.5t-18.5 45.5v64q0 26 18.5 45t45.5 19v256h-320v-256q26 0 45.002-19t19.002-45v-64q0-27-19.002-45.5t-45.002-18.5h-64q-27.002 0-45.498 18.5t-18.502 45.5v64q0 26 18.502 45t45.498 19v288q0 13 9.498 22.5t22.502 9.5h352v192h-64q-27 0-45.5 18.5t-18.5 45.5v192q0 26 18.5 45t45.5 19h192q26 0 45-19t19-45v-192q0-27-19-45.5t-45-18.5h-64v-192h352q13 0 22.5-9.5t9.5-22.5v-288q26 0 45-19t19-45v-64q0-27-19-45.5t-45-18.5z" />
<glyph unicode="&#xf2001;" glyph-name="uniF2001" d="M618.154 191.978h-384.652q-26.226 0-44.334 18.732t-18.108 44.96 18.108 45.582 44.334 19.358h384.652q26.226 0 44.96-19.358t18.732-45.582q0-19.982-11.24-36.216l139.874 146.116v338.446h-148.616q-28.726 0-49.332 12.488t-33.096 31.848-18.732 41.838-6.244 41.214v128.634h-473.322q-16.234 0-27.478-11.238t-11.24-27.476v-885.45q0-14.986 11.24-26.226t27.478-11.24h375.91l198.57 206.062q-14.986-12.49-37.466-12.49zM618.154 575.382q26.226 0 44.96-18.732t18.732-45.582-18.732-44.96-44.96-18.108h-384.652q-26.226 0-44.334 18.108t-18.108 44.96 18.108 45.582 44.334 18.732h384.652zM729.304 173.244q-18.732-17.484-37.466-36.842t-33.72-34.346l-38.716-38.716q-9.99-9.99-16.234-23.73-2.5-3.746-4.994-14.986-3.746-11.24-8.742-23.73-3.746-13.736-6.868-25.602t-4.37-18.108q-1.248-12.49 2.5-17.484t16.234-3.746q6.244 1.248 18.732 4.37t26.226 8.118l24.978 7.494q13.736 4.994 19.358 8.118t11.866 7.494 11.24 9.37q1.248 0 11.24 10.616t23.73 24.352l169.846 169.85-86.174 86.174q-54.95-53.702-98.66-98.66zM982.826 266.912q-1.248 12.49-3.746 19.982-6.244 14.986-18.108 27.476t-21.856 17.484q-9.99 6.244-23.73 7.494t-26.226-9.99q-4.994-3.746-13.116-11.24t-14.362-12.49l87.422-86.174q2.5 2.5 7.494 6.244 2.5 3.746 7.494 7.494l8.742 9.99q11.24 11.24 9.99 23.73zM810.48 768.96v152.36q0 16.234-11.24 27.476t-26.226 11.24h-154.86v-113.646q0-32.474 22.48-54.95t54.95-22.48h114.894z" />
<glyph unicode="&#xf2002;" glyph-name="uniF2002" d="M476.806 170.076v29.126h-245.152q-25.486 0-44.298 18.206t-18.812 43.692 18.812 44.298 44.298 18.812h288.844q38.836 58.254 100.73 92.842t135.926 34.588q8.496 0 17.598-0.608t17.598-0.608v246.368h-145.634q-27.914 0-47.332 12.138t-32.16 30.946-18.812 40.656-6.068 40.050v125.004h-459.966q-15.778 0-26.7-10.924t-10.924-26.7v-859.25q0-15.778 10.924-26.7t26.7-10.924h442.976q-23.060 33.982-35.802 74.638t-12.742 84.346zM187.354 554.19q18.812 17.598 44.298 17.598h372.584q25.486 0 44.298-17.598t18.812-43.692-18.812-44.298-44.298-18.206h-372.584q-25.486 0-44.298 18.204t-18.812 44.298 18.812 43.69zM962.864 253.816q-17.598 40.050-47.332 69.784t-69.784 47.332-84.956 17.598-84.956-17.598-69.784-47.332-46.726-69.784-16.99-83.74q0-46.116 16.99-86.168t46.726-69.784 69.784-46.726 84.956-16.99 84.956 16.99 69.784 46.726 47.332 69.784 17.598 86.168q0 43.692-17.598 83.74zM870.020 102.114q8.496-8.496 8.496-21.846t-8.496-22.452-21.846-9.102-21.846 9.708l-65.536 65.536-66.75-65.536q-8.496-9.708-21.846-9.708t-22.452 9.102-9.102 22.452 9.708 21.846l65.536 66.75-65.536 65.536q-9.708 8.496-9.708 21.846t9.102 21.846 22.452 8.496 21.846-8.496l66.75-65.536 65.536 65.536q8.496 8.496 21.846 8.496t21.846-8.496 8.496-21.846-8.496-21.846l-65.536-65.536zM679.48 759.902h112.866v148.062q0 15.776-10.924 26.7t-26.7 10.924h-149.278v-110.44q0-31.554 21.846-53.4t52.188-21.846z" />
<glyph unicode="&#xf2003;" glyph-name="uniF2003" d="M946.48 901.45q0 15.778-10.924 26.7t-26.7 10.924h-669.924q-15.776 0-26.7-10.924t-10.924-26.7v-86.168h485.452q57.040-10.924 92.236-47.938t42.476-104.98v-594.678h87.38q15.778 0 26.7 10.924t10.924 26.7v796.14zM760.794 678.142q0 30.342-21.846 52.188t-53.4 21.846h-634.73q-15.778 0-26.7-10.924t-10.924-25.486v-736.674q0-15.778 10.924-26.7t26.7-10.924h672.35q15.778 0 26.7 10.924t10.924 26.7v699.052zM617.586 149q-18.206-18.206-43.692-18.206h-373.798q-25.486 0-43.692 18.206t-18.206 43.692 18.204 43.692 43.692 18.206h373.798q25.486 0 43.692-18.206t18.206-43.692-18.206-43.692zM617.586 397.186q-18.206-17.598-43.692-17.598h-373.798q-25.486 0-43.692 17.598t-18.206 43.692 18.204 44.298 43.692 18.204h373.798q25.486 0 43.692-18.204t18.206-44.298-18.206-43.692z" />
<glyph unicode="&#xf2004;" glyph-name="uniF2004" d="M145 136.998q-18 0-30.5 12.5t-12.5 30.5v653q0 17 12.5 29.5t30.5 12.5h567q18 0 30.5-12.5t12.5-29.5v-242q44-5 85-21v339q0 21-15 36t-36 15h-721q-21 0-36-15t-15-36v-805q0-21 15-36t36-15h341q-24 40-37 84h-227zM669 589.998v30h-482v-56h386q46 20 96 26zM187 278.998v-57h171v15q0 21 3 42h-174zM429 449.998h-242v-57h207q15 30 35 57zM669 788.998h-482v-56h482v56zM712.5 534.998q-123.5 0-211-87.5t-87.5-211 87.5-211 211-87.5 211 87.5 87.5 211-87.5 211-211 87.5zM713-4.002q-100 0-171 70.5t-71 170.5 71 171 171 71 170.5-71 70.5-171-70.5-170.5-170.5-70.5zM697 363.998h-57v-198h200v57h-143v141z" />
<glyph unicode="&#xf2005;" glyph-name="uniF2005" d="M356 318.998h-187v-52h181q1 26 6 52zM169 573.998h403q52 20 108 22v30h-511v-52zM135 164.998q-18 0-30.5 13t-12.5 30v630q0 18 12.5 30.5t30.5 12.5h579q18 0 30.5-12.5t12.5-30.5v-247q40-7 77-24v340q0 21-15 36t-36 15h-717q-21 0-36-15t-15-36v-768q0-21 15-36t36-15h324q-20 37-30 77h-225zM680 778.998h-511v-51h511v51zM706 549.998q-127 0-216.5-89.5t-89.5-216.5 89.5-216.5 216.5-89.5 216.5 89.5 89.5 216.5-89.5 216.5-216.5 89.5zM706.5-15.002q-106.5 0-182 75.5t-75.5 182 75.5 182 182 75.5 182-75.5 75.5-182-75.5-182-182-75.5zM169 471.998v-51h225q15 27 35 51h-260zM863 367.998l-205-204-102 105-51-56 153-152 256 256z" />
<glyph unicode="&#xf2006;" glyph-name="uniF2006" d="M915.2 296.532q-42.668-8.534-114.134-74.134t-132.8-142.932-93.332-133.866q-64 76.8-134.4 132.8t-124.8 75.2l167.468 98.134 81.068-152.534q5.332 12.8 15.466 34.134t44.268 80.534 70.932 110.4 94.4 106.134 115.2 83.734q-1.068-16-4.8-52.268t-4.8-56 3.2-50.668 17.068-58.668zM782.932 777.598q0 13.866-9.068 22.932t-22.932 9.068h-125.866v62.932h155.732q26.668 0 45.866-18.668t19.2-44.268v-300.8q-16-6.4-31.466-17.6t-24-18.668l-7.466-8.534v313.6zM688 777.598q12.8 0 22.4-9.068t9.6-21.868v-64h-443.734v64q0 12.8 9.068 21.868t21.868 9.068h94.932v91.732q0 40.534 27.734 69.332t67.2 28.8 68.268-29.866 28.8-68.268l-1.068-91.734h94.932zM497.068 872.532q-12.8 0-22.4-9.068t-9.6-22.4 9.6-22.4 22.4-9.068 21.866 9.068 9.068 22.4-9.068 22.4-21.868 9.068zM212.266 777.598v-727.466q0-13.866 9.6-22.932t22.4-9.068h187.734q45.868-24.534 68.266-62.932h-288q-25.6 0-44.266 18.668t-18.668 44.268v791.466q0 25.6 18.668 44.268t44.266 18.666h160v-62.932h-128q-12.8 0-22.4-9.068t-9.6-22.932zM750.932 18.132q13.866 0 22.932 9.068t9.068 22.932v104.534q32 32 62.932 57.6v-194.134q0-25.6-19.2-44.268t-45.866-18.668h-161.068q21.332 30.932 44.8 62.932h86.4z" />
<glyph unicode="&#xf2007;" glyph-name="uniF2007" d="M688 777.598h-94.932q1.068 36.266 1.068 91.732 0 38.4-28.8 68.268t-68.266 29.866-67.2-28.8-27.734-69.332v-91.734h-94.932q-12.8 0-21.868-9.068t-9.068-21.866v-64h443.732v64q0 12.8-9.6 21.866t-22.4 9.068zM497.068 809.598q-12.8 0-22.4 9.068t-9.6 22.4 9.6 22.4 22.4 9.068 21.866-9.068 9.068-22.4-9.068-22.4-21.868-9.068zM244.266 18.132q-12.8 0-22.4 9.068t-9.6 22.932v727.466q0 13.866 9.6 22.932t22.4 9.068h128v62.932h-160q-25.6 0-44.266-18.668t-18.668-44.266v-791.466q0-25.6 18.668-44.268t44.266-18.668h390.4q-28.8 37.332-29.866 62.932h-328.534zM845.866 809.598q0 25.6-19.2 44.266t-45.866 18.668h-155.732v-62.932h125.866q13.866 0 22.932-9.068t9.068-22.932v-468.266q40.534-2.134 62.932-18.134v518.4zM905.6 210.132l1.068 1.068-30.932 30.932-1.068-1.068q-46.932 37.332-107.734 37.332-73.6 0-124.8-51.2t-51.2-124.8q0-59.732 37.332-107.734l-1.068-1.068 30.932-30.932 1.068 1.068q46.932-37.334 107.734-37.334 72.534 0 124.268 51.732t51.732 124.268q0 60.8-37.332 107.732zM634.668 102.398q0 54.4 38.932 93.332t93.332 38.932q41.6 0 76.8-24.534l-184.534-183.466q-24.534 34.134-24.534 75.732zM766.932-29.868q-41.6 0-76.8 25.6l184.534 183.466q24.534-35.2 24.534-76.8 0-54.4-38.932-93.332t-93.332-38.932z" />
<glyph unicode="&#xf2008;" glyph-name="uniF2008" d="M276.266 746.666v-64h443.734v64q0 12.8-9.6 21.866t-22.4 9.068h-94.932q1.068 36.268 1.068 91.734 0 38.4-28.8 68.266t-68.266 29.868-67.2-28.8-27.734-69.332v-91.732h-94.932q-12.8 0-21.868-9.068t-9.068-21.868zM497.068 872.532q12.8 0 21.866-9.068t9.068-22.4-9.068-22.4-21.868-9.068-22.4 9.068-9.6 22.4 9.6 22.4 22.4 9.068zM244.266 18.132q-12.8 0-22.4 9.068t-9.6 22.932v727.466q0 13.866 9.6 22.932t22.4 9.068h128v62.932h-160q-25.6 0-44.266-18.668t-18.668-44.266v-791.466q0-25.6 18.668-44.268t44.266-18.668h306.132q7.466 52.268 10.668 62.932h-284.8zM782.932 777.598v-420.268l62.932-64v516.268q0 25.6-19.2 44.266t-45.866 18.668h-155.732v-62.932h125.866q13.866 0 22.932-9.068t9.068-22.932zM775.466-32.002l169.6 172.8-169.6 170.668v-97.068q-32 0-60.8-6.4t-59.2-24.534-52.268-46.932-35.732-77.866-13.866-113.068q10.668 35.2 34.668 61.332t51.2 36.8 55.466 17.6 48 5.332 29.332-0.534h3.2v-98.134z" />
<glyph unicode="&#xf2009;" glyph-name="uniF2009" d="M772 0.998h-519q-24 0-40.5 17t-16.5 41v694q0 23 16.5 40t40.5 17h144v-60h-115q-12 0-20.5-8.5t-8.5-20.5v-634q0-12 8.5-20t20.5-8h461q12 0 20.5 8t8.5 20v634q0 12-8.5 20.5t-20.5 8.5h-115v60h144q23 0 40-17t17-40v-694q0-24-17-41t-40-17zM397 577.998h317v-29h-317v29zM397 490.998h317v-28h-317v28zM397 404.998h317v-28h-317v28zM397 318.998h317v-29h-317v29zM714 117.998h-317v29h317v-29zM397 232.998h317v-29h-317v29zM311 577.998h29v-28h-29v28zM311 491.998h29v-29h-29v29zM311 405.998h29v-29h-29v29zM311 319.998h29v-29h-29v29zM340 117.998h-29v29h29v-29zM311 232.998h29v-28h-29v28zM685 719.998q12 0 20.5-8.5t8.5-20.5v-56h-403v56q0 12 8.5 20.5t20.5 8.5h86v87q0 37 25 63t61 26 62-27 26-62l-1-87h86zM512 809.998q-12 0-20-8.5t-8-20.5 8-20 20-8 20.5 8 8.5 20-8.5 20.5-20.5 8.5z" />
<glyph unicode="&#xf200a;" glyph-name="uniF200A" d="M796 881.998q27-25 43-41.5t24.5-28 10.5-19.5 2-14v-16h-148q-10 0-17.5 7.5t-12.5 17.5-7.5 20.5-2.5 16.5v124h3q8 0 16.5-2.5t19.5-9.5 27.5-20 41.5-35zM625 823.998q0-20 6-41.5t19-40 33-30.5 47-12h146v-564q0-29-11.5-52t-30.5-39-42-25-45-9h-492q-19 0-41.5 11t-42 29-32.5 41-13 48v680q0 21 9.5 43.5t26 41.5 37.5 31.5 44 12.5h382v-125zM688 199.998q26 0 44 18.5t18 44.5-18 44-44 18h-375q-26 0-44-18t-18-44 18-44.5 44-18.5h375zM750 511.998q0 26-18 44.5t-44 18.5h-375q-26 0-44-18.5t-18-44.5 18-44 44-18h375q26 0 44 18t18 44z" />
<glyph unicode="&#xf200b;" glyph-name="uniF200B" d="M666 763.998q-11 0-18.5 7.5t-12.5 17.5-7.5 20.5-2.5 17.5v123h2q9 0 17-2t19.5-9.5 28-21 41.5-35.5q27-24 43-40.5t24.5-28 10.5-19.5 2-14v-16h-147zM977 292.998q3-8 4-20t-10-23q-5-5-9-9.5t-7-7.5q-4-4-7-6l-85 84q6 5 13.5 12t12.5 11q12 11 26 9.5t23-6.5q10-5 21.5-17.5t17.5-26.5zM624 199.998q22 0 37 12l-194-202h-276q-19 0-41.5 11t-42 29-32.5 41.5-13 48.5v681q0 21 9.5 44t26 41.5 37.5 31 44 12.5h383v-125q0-19 6-41t18.5-40.5 32.5-31 48-12.5h146v-331l-137-142q11 16 11 35 0 26-18.5 44.5t-44.5 18.5h-375q-26 0-44-18.5t-18-44.5 18-44 44-18h375zM249 574.998q-26 0-44-18.5t-18-44.5 18-44 44-18h375q26 0 44.5 18t18.5 44-18.5 44.5-44.5 18.5h-375zM626 73.998l38 38q15 15 33 33.5t36 36.5q43 43 97 96l84-84-166-166q-14-14-23.5-24t-10.5-11q-5-4-11-8.5t-12-7.5-18.5-7.5-25.5-8.5-25-7-18-4q-12-2-16 3t-2 17q1 6 4 18t7 24.5 7.5 23.5 5.5 15q6 13 16 23z" />
<glyph unicode="&#xf200c;" glyph-name="uniF200C" d="M668 761.998q-10 0-17.5 7t-12.5 17-7.5 20.5-2.5 17.5v124h2q8 0 16.5-2.5t20-9.5 28-20.5 41.5-35.5q27-24 42.5-41t24-28.5 10.5-19.5 2-14v-15h-147zM784 386.998q46 0 86-17t70-47 47-70 17-86-17-86-47-70-70-47-86-17q-45 0-85 17t-70 47-47.5 70-17.5 86 17.5 86 47.5 70 70 47 85 17zM909 131.998q9 0 16 10t7 24-7 24-16 10h-95v88q0 8-8.5 14t-23.5 6-22.5-6-7.5-14v-110q-2-8-2-12 0-14 7-24t16-10h136zM499 196.998q-1-7-1-14v-15q0-45 13-85t36-75h-354q-19 0-41.5 11t-42 29-32.5 41-13 48v682q0 21 10 43.5t26 41.5 37 31.5 44 12.5h383v-125q0-20 6-41.5t19-40.5 33-31 47-12h146v-249q-8 2-17 2h-18q-75 0-137-35t-100-94h-291q-26 0-44.5-18t-18.5-44 18.5-44.5 44.5-18.5h247zM252 572.998q-26 0-44.5-18.5t-18.5-44.5 18.5-44 44.5-18h375q26 0 44 18t18 44-18 44.5-44 18.5h-375z" />
<glyph unicode="&#xf200d;" glyph-name="uniF200D" d="M668 761.998q-10 0-17.5 7.5t-12.5 17.5-7.5 20.5-2.5 17.5v123h2q9 0 17-2t19.5-9.5 28-21 41.5-35.5q27-24 43-40.5t24-28 10.5-19.5 2.5-14v-16h-148zM784 387.998q46 0 86-17.5t70-47.5 47.5-70 17.5-85q0-46-17.5-86t-47.5-70-70-47.5-86-17.5q-45 0-85 17.5t-70 47.5-47.5 70-17.5 86q0 45 17.5 85t47.5 70 70 47.5 85 17.5zM828 166.998l66 66q9 9 9 22t-9 22-22 9-22-9l-66-66-67 66q-9 9-22 9t-22-9-9-22 9-22l66-66-66-67q-9-9-9-22t9-22 22-9 22 9l67 66 66-66q9-9 22-9t22 9 9 22-9 22zM499 197.998q-1-8-1-14v-15q0-45 13-85.5t37-74.5h-355q-19 0-41.5 11t-42 29-32.5 41-13 48v681q0 21 10 44t26.5 41.5 37.5 31 44 12.5h383v-125q0-19 6-41t18.5-40.5 32.5-31 48-12.5h146v-248q-9 1-18 1.5t-17 0.5q-75 0-137.5-35t-100.5-94h-291q-26 0-44.5-18.5t-18.5-44.5 18.5-44 44.5-18h247zM252 572.998q-26 0-44.5-18t-18.5-44 18.5-44.5 44.5-18.5h375q26 0 44.5 18.5t18.5 44.5-18.5 44-44.5 18h-375z" />
<glyph unicode="&#xf2010;" glyph-name="uniF2010" d="M649 774.374q28.126 0 50.156-12.188t37.97-30 24.376-38.438 8.438-36.562v-529.688q0-27.188-10.78-48.75t-28.126-36.562-38.906-23.438-43.126-8.438h-462.188q-17.812 0-38.906 10.312t-39.376 27.188-30.468 38.906-12.188 44.53v522.188q0 19.688 9.376 40.78t24.376 38.906 34.688 29.532 41.25 11.718h473.438zM593.688 188.436q24.376 0 41.72 16.876t17.344 41.25-17.344 41.72-41.72 17.344h-351.562q-24.376 0-41.718-17.344t-17.344-41.72 17.344-41.25 41.718-16.876h351.562zM593.688 422.81q24.376 0 41.72 16.876t17.344 41.25-17.344 41.718-41.72 17.344h-351.562q-24.376 0-41.718-17.344t-17.344-41.718 17.344-41.25 41.718-16.876h351.562zM759.626 950.624q40.312 0 74.062-23.906t58.594-59.064 38.906-75.938 14.062-74.532v-497.812q0-19.688-11.72-36.094t-28.594-28.126-36.562-18.75-36.562-7.030h-3.75v559.688q-7.5 64.688-40.312 99.376t-87.188 45h-457.5q0.938 1.876 0.938 6.562 0 18.75 11.25 38.438t29.532 35.626 40.782 26.25 45 10.312h389.062z" />
<glyph unicode="&#xf2011;" glyph-name="uniF2011" d="M623.502 593.632q26.168-23.894 43.236-40.392t26.738-27.308 13.086-18.204 3.414-14.222v-394.808q0-32.996-10.24-60.302t-29.582-47.788-46.080-31.858-58.596-11.378h-431.218q-26.168 0-50.062 7.966t-42.668 25.030-30.15 43.804-11.378 63.148v431.218q0 28.446 11.946 54.046t31.29 44.942 43.234 30.72 47.788 11.378h386.844q7.966 0 15.928-2.274t19.342-9.102 27.308-19.91 39.822-34.702zM475.592 163.552q12.514 0 21.618 11.948t9.102 24.462-9.102 23.894-21.618 11.378h-304.926q-12.514 0-21.618-11.378t-9.102-23.894 9.102-24.462 21.618-11.948h304.926zM475.592 372.906q12.514 0 21.618 15.36t9.102 29.014q0 12.514-9.102 24.462t-21.618 11.948h-237.794q-12.516 0-21.050-11.948t-8.532-24.462q0-13.654 8.532-29.014t21.050-15.36h237.794zM832.852 941.792q84.196 0 123.448-43.804t39.254-115.486v-673.566q0-85.332-39.254-119.466t-122.312-34.134h-53.476v152.462h11.378q29.582 0 46.080 11.948t16.498 47.218v541.582q0 22.754-8.534 40.39t-22.754 30.152-31.288 19.342-34.134 6.826h-127.432v-26.168q0-19.342-13.086-32.428t-32.428-13.086h-155.876q-19.342 0-31.858 13.086t-12.514 32.428v26.168h-131.982q-25.032 0-43.234-17.634t-18.204-43.804v-18.206h-121.742v59.164q0 75.094 42.668 116.052t116.622 40.96h604.16z" />
<glyph unicode="&#xf2012;" glyph-name="uniF2012" d="M818.346 862.148q30.72-27.306 48.924-46.080t27.876-31.858 11.948-22.188 2.274-15.928v-18.204h-167.252q-12.514 0-21.048 8.532t-14.222 19.912-8.534 23.324-2.846 19.912v139.948h2.274q10.24 0 19.342-2.274t22.188-10.81 31.858-23.892 47.218-40.392zM623.788 797.296q0-21.618 6.826-46.65t21.618-46.080 37.548-35.27 53.476-14.222h166.116v-570.028q0-32.996-13.086-59.164t-34.702-44.942-47.788-29.014-51.2-10.24h-490.382q-21.618 0-47.218 12.514t-47.788 32.996-36.978 47.218-14.79 55.182v703.148q0 23.894 11.378 50.062t30.152 47.218 42.668 35.272 50.062 14.222h364.090v-142.222zM532.764 284.158q13.654 13.654 14.792 36.408t-12.514 35.27l-186.596 187.732q-13.654 13.654-33.564 13.654t-33.564-13.654q-13.654-14.79-13.654-34.702t13.654-33.564l152.462-154.738-152.462-153.6q-13.654-13.654-13.654-33.564t13.654-34.702q13.654-13.654 33.564-13.654t33.564 13.654zM766.010 157.864h-213.902v-71.68h213.902v71.68z" />
<glyph unicode="&#xf2013;" glyph-name="uniF2013" d="M512 955.446q-103.538 0-197.404-40.39t-162.134-108.088-108.658-162.134-40.39-197.972 40.39-197.972 108.658-162.134 162.134-108.088 197.404-40.39 197.972 40.39 162.702 108.088 108.658 162.134 40.39 197.972-40.39 197.972-108.658 162.134-162.702 108.090-197.974 40.39zM512 185.172l-64.854 37.548q18.204 7.966 26.168 22.754 12.514 21.618 5.69 44.942t-27.876 35.84-44.942 5.688-35.272-27.308q-7.964-14.792-6.826-34.134l-61.44 35.27 61.44-36.408q3.414-30.72 28.444-45.51t53.476-2.274l64.854-37.548-191.146-98.986-17.068 220.73 208.212 366.366 210.49-120.606zM752.072 606.15l-209.35 119.466q-1.138 0-2.274 1.138l2.274-1.138q1.138 1.138 6.826 13.654t16.498 25.6 26.738 23.894 44.374 7.966 64.852-22.188q38.686-21.618 57.458-46.648t19.342-45.512-5.12-38.116-13.654-27.876z" />
<glyph unicode="&#xf2014;" glyph-name="uniF2014" d="M298.098 280.744l47.786-47.788 116.052 42.098-121.742 121.742zM513.706 958.86q-104.106 0-198.542-40.39t-163.27-109.226-109.228-163.272-40.39-198.542 40.39-198.542 109.228-162.702 163.27-108.658 198.542-40.39 198.542 40.39 162.702 108.658 108.658 162.702 40.39 198.542-40.39 198.542-108.658 163.27-162.702 109.226-198.542 40.392zM488.108 248.888v1.138q-3.414-2.274-5.69-3.414l-234.382-85.332q-10.24-3.414-18.204 3.414-7.966 7.966-3.414 18.206l85.332 234.382q1.138 2.274 3.414 5.688h-1.138l211.628 211.628 42.098-42.098-166.116-164.978q-3.414-4.552-3.414-10.24t3.982-9.672 9.67-3.982 9.102 4.552l166.116 164.978 51.2-51.2-164.978-164.978q-9.102-9.102 0-19.342 4.55-3.414 10.24-3.414t9.102 3.414l164.978 164.978 42.098-42.098zM783.928 545.846l-65.99-65.99-73.956 72.818-98.986 100.126 65.99 65.99q18.206 18.206 43.236 18.206t43.236-18.206l86.472-87.608q18.206-17.068 18.206-42.668t-18.206-42.668z" />
<glyph unicode="&#xf2015;" glyph-name="uniF2015" d="M415.288 648.248h182.044q9.102 0 15.928 6.826t6.826 15.928-6.826 15.928-15.928 6.826h-182.044q-10.24 0-16.498-6.826t-6.258-15.928 6.258-15.928 16.498-6.826zM597.332 579.98h-182.044q-28.444 0-48.356-19.91t-19.912-48.356v-242.346q0-27.308 19.912-47.788t48.356-20.48h182.044q28.446 0 48.356 20.48t19.91 47.788v242.346q0 28.446-19.912 48.356t-48.356 19.91zM438.046 269.368q0-9.102-6.826-15.928t-16.498-6.826-15.928 6.826-6.258 15.928v242.346q0 9.102 6.258 15.928t15.928 6.826 16.498-6.826 6.826-15.928v-242.346zM529.068 269.368q0-9.102-6.826-15.928t-15.928-6.826-15.928 6.826-6.826 15.928v242.346q0 9.102 6.826 15.928t15.928 6.826 15.928-6.826 6.826-15.928v-242.346zM620.090 269.368q0-9.102-6.826-15.928t-15.928-6.826-15.928 6.826-6.826 15.928v242.346q0 9.102 6.826 15.928t15.928 6.826 15.928-6.826 6.826-15.928v-242.346zM513.706 958.86q-104.106 0-198.542-40.39t-163.27-109.226-109.228-163.272-40.39-198.542 40.39-198.542 109.228-162.702 163.27-108.658 198.542-40.39 198.542 40.39 162.702 108.658 108.658 162.702 40.39 198.542-40.39 198.542-108.658 163.27-162.702 109.226-198.542 40.392zM756.622 579.98h-48.924q3.414-11.378 3.414-22.754v-333.37q0-27.308-19.91-47.788t-48.356-20.48h-273.068q-28.444 0-48.356 20.48t-19.912 47.788v333.37q0 11.378 3.414 22.754h-50.062q-9.102 0-15.93 6.826t-6.826 15.928 6.826 15.928 15.93 6.826h92.16v45.51q0 28.446 19.912 48.356t48.356 19.912h182.046q28.446 0 48.356-19.912t19.912-48.356v-45.51h91.022q10.24 0 16.498-6.826t6.258-15.928-6.258-15.928-16.498-6.826z" />
<glyph unicode="&#xf2016;" glyph-name="uniF2016" d="M969.144 740.57q22.856 0 38.856-16t16-38.858v-694.856q0-22.856-16-38.856t-38.856-16h-548.572q-22.856 0-38.856 16t-16 38.856v164.572h-310.858q-22.856 0-38.856 16t-16 38.856v384q0 22.856 11.43 50.286t27.428 43.43l233.144 233.144q16 16 43.43 27.428t50.286 11.428h237.714q22.856 0 38.856-16t16-38.856v-187.428q38.856 22.856 73.144 22.856h237.714zM658.286 618.854l-170.856-170.856h170.856v170.856zM292.572 838.284l-170.856-170.858h170.856v170.856zM404.572 468.57l180.572 180.572v237.714h-219.428v-237.714q0-22.856-16-38.856t-38.856-16h-237.714v-365.714h292.572v146.286q0 22.856 11.428 50.286t27.428 43.428zM950.856 9.142v658.286h-219.428v-237.714q0-22.856-16-38.856t-38.856-16h-237.714v-365.714h512z" />
<glyph unicode="&#xf2017;" glyph-name="uniF2017" d="M438.858 9.142h512v365.714h-237.714q-22.856 0-38.856 16t-16 38.856v237.714h-219.428v-658.286zM585.144 831.998v36.572q0 7.428-5.428 12.856t-12.856 5.428h-402.286q-7.43 0-12.856-5.428t-5.43-12.856v-36.572q0-7.428 5.43-12.856t12.856-5.43h402.286q7.428 0 12.856 5.43t5.428 12.856zM731.428 447.998h170.856l-170.856 170.856v-170.856zM1024 374.854v-384q0-22.856-16-38.856t-38.856-16h-548.572q-22.856 0-38.856 16t-16 38.856v91.428h-310.858q-22.856 0-38.856 16t-16 38.856v768q0 22.856 16 38.856t38.856 16h621.714q22.856 0 38.856-16t16-38.856v-187.428q12-7.43 20.572-16l233.144-233.144q16-16 27.428-43.428t11.43-50.286z" />
<glyph unicode="&#xf2018;" glyph-name="uniF2018" d="M857.6 260.266q35.2-22.4 56.534-59.732t21.332-82.134q0-35.2-13.332-65.6t-36.268-52.8-53.332-35.732-65.6-13.332q-44.8 0-81.6 21.332t-59.2 55.466q-4.268 4.268-7.466 9.068t-8.534 10.134q-17.068 23.466-21.332 57.6t-3.2 70.932 2.134 72.534-5.332 63.466q-11.732 21.332-26.668 46.4t-33.068 50.668q-3.2 4.268-5.866 7.466t-4.8 6.4q-20.266-24.534-39.466-49.068t-39.466-51.2q-5.334-6.4-9.068-12.8t-9.068-12.8q-9.6-20.268-9.6-35.2t3.734-29.332 8.534-29.332 5.334-34.668-5.334-46.4-22.932-64q-18.132-48-60.8-78.4t-97.068-30.4q-35.2 0-65.6 13.332t-53.332 36.268-36.266 53.332-13.332 65.6q0 38.4 16 71.466t43.734 56.534q26.668 27.732 56 46.4t58.134 34.668 54.932 32 45.332 38.4q4.266 5.332 8 10.668t8 10.668l1.068 1.068q4.266 8.534 11.734 16 14.932 19.2 29.868 40t30.932 42.132q-27.734 28.8-47.466 46.932t-37.868 42.668q-37.334 49.068-62.932 102.4t-39.466 101.334-14.4 85.866 13.332 56q7.468 5.332 21.334 8t22.4-10.134q19.2-28.8 43.734-66.132t53.334-80.534 59.734-90.134 61.868-92.8q6.4 8.532 12.268 17.6t12.268 17.6q28.8 41.6 55.466 85.866t49.6 84.8 40.534 73.068 27.2 49.6q7.466 11.734 25.6 12.268t30.932-11.2q6.4-6.4 11.2-36.8t-3.2-78.4-34.134-110.4-81.6-132.8l-34.134-42.668q-17.068-21.332-35.2-42.668 24.534-37.332 46.4-70.4t40-59.732q26.668-27.732 53.866-43.732t51.732-27.2 45.866-20.8 37.332-24.534zM235.734 40.532q34.132 0 58.132 24.534t24 58.668-24 58.668-58.134 24.534-58.668-24.534-24.534-58.668 24.534-58.668 58.668-24.534zM765.866 40.532q34.134 0 58.134 24t24 58.134-24 58.668-58.134 24.534-58.668-24.534-24.534-58.668q0-17.068 6.4-32t17.6-26.134 26.668-17.6 32.534-6.4z" />
<glyph unicode="&#xf2019;" glyph-name="uniF2019" d="M548.572 447.998q14.856 0 25.714-10.856t10.856-25.714-10.856-25.714-25.714-10.856-25.714 10.856-10.856 25.714 10.856 25.714 25.714 10.856zM720 411.426l289.714-227.428q16-11.428 14.286-32-2.856-20-20-29.144l-73.144-36.572q-7.428-4-16.572-4-9.714 0-17.714 4.572l-394.286 221.144-62.858-37.714q-4.572-2.286-6.858-2.856 8-28 5.714-55.428-4-44-32-84.286t-75.428-70.572q-75.43-48-158.286-48-77.714 0-126.856 44.572-51.43 48-45.144 118.286 4 43.428 32 84t74.856 70.856q75.43 48 158.856 48 47.428 0 86.286-17.714 5.142 7.428 12.572 12.572l69.714 41.714-69.714 41.714q-7.428 5.142-12.572 12.572-38.858-17.714-86.286-17.714-83.43 0-158.856 48-46.856 30.286-74.856 70.856t-32 84q-2.858 33.714 8.856 64.572t36.286 53.144q48.57 45.142 126.856 45.142 82.856 0 158.286-48 47.428-29.714 75.428-70.286t32-84.572q2.286-27.428-5.714-55.428 2.286-0.572 6.858-2.856l62.856-37.714 394.286 221.144q8 4.572 17.714 4.572 9.144 0 16.572-4l73.144-36.572q17.144-9.144 20-29.144 1.714-20.572-14.286-32zM330.858 559.998q26.286 24 12 61.714t-60.57 66.858q-52.57 33.714-109.714 33.714-42.286 0-64.57-20.572-26.286-24-12-61.714t60.57-66.856q52.57-33.714 109.714-33.714 42.286 0 64.572 20.57zM282.286 134.284q46.286 29.144 60.57 66.856t-12 61.714q-22.286 20.572-64.572 20.572-57.144 0-109.714-33.714-46.286-29.144-60.57-66.856t12-61.714q22.286-20.572 64.57-20.572 57.144 0 109.714 33.714zM384 484.57l54.856-33.144v6.286q0 20.572 18.856 32l8 4.572-45.144 26.858-14.856-14.856q-1.714-1.714-5.714-6.286t-6.858-6.858q-1.142-1.142-2.286-2t-1.714-1.428zM512 356.57l54.856-18.286 420.572 329.144-73.144 36.57-438.858-246.286v-64.57l-91.43-54.856 5.142-4.572q1.142-1.144 4-3.428 2.286-2.286 6.286-6.856t6.286-6.856l14.858-14.856zM914.286 118.854l73.144 36.572-297.142 233.144-101.144-78.856q-1.144-1.714-7.428-4z" />
<glyph unicode="&#xf201a;" glyph-name="uniF201A" d="M919.912 275.062c-49.168 49.062-111.706 74.384-170.096 74.384h-31.35l-68.82 68.932 275.284 275.734c68.82 68.932 68.82 206.798 0 275.734l-412.928-413.6-412.928 413.598c-68.82-68.932-68.82-206.798 0-275.734l275.286-275.728-68.822-68.932h-31.352c-58.39 0-120.93-25.326-170.098-74.39-87.902-87.706-99.776-218.062-26.526-291.146 32.274-32.202 75.696-47.916 121.688-47.916 58.388 0 120.928 25.322 170.096 74.384 57.706 57.576 82.646 133.538 72.242 199.606l70.412 70.526 70.404-70.526c-10.398-66.068 14.544-142.026 72.242-199.606 49.178-49.064 111.716-74.384 170.1-74.384 45.994 0 89.41 15.714 121.686 47.918 73.254 73.086 61.37 203.438-26.526 291.146zM340.796 128.186c-8.29-19.256-20.472-36.986-36.212-52.69-15.762-15.726-33.57-27.912-52.928-36.212-17.374-7.448-35.496-11.38-52.406-11.38-16.31 0-39.43 3.664-56.928 21.12-17.376 17.342-21.022 40.19-21.022 56.31 0 16.74 3.922 34.688 11.336 51.922 8.294 19.26 20.478 36.986 36.212 52.69 15.76 15.73 33.57 27.906 52.93 36.212 17.376 7.446 35.496 11.38 52.408 11.38 16.31 0 39.428-3.664 56.924-21.124 17.376-17.336 21.024-40.188 21.024-56.304 0.002-16.74-3.918-34.696-11.338-51.924zM512.004 320.892c-53.752 0-97.33 43.65-97.33 97.49 0 53.836 43.574 97.482 97.33 97.482s97.326-43.646 97.326-97.482c-0.002-53.844-43.574-97.49-97.326-97.49zM881.678 49.028c-17.5-17.456-40.612-21.12-56.924-21.12-16.91 0-35.032 3.934-52.408 11.38-19.356 8.298-37.162 20.482-52.924 36.212-15.74 15.702-27.922 33.43-36.212 52.69-7.418 17.23-11.336 35.184-11.336 51.922 0 16.118 3.644 38.972 21.022 56.308 17.496 17.456 40.612 21.124 56.924 21.124 16.908 0 35.032-3.936 52.404-11.38 19.36-8.3 37.172-20.48 52.932-36.212 15.734-15.702 27.918-33.43 36.212-52.69 7.414-17.23 11.336-35.182 11.336-51.922-0.004-16.12-3.654-38.968-21.024-56.31z" />
<glyph unicode="&#xf201b;" glyph-name="uniF201B" d="M916.268 271.998q-73.6 73.6-168.534 73.6h-30.932l-68.266 68.266 272 273.068q51.2 51.2 51.2 136.534t-51.2 136.534l-408.534-409.6-408.534 409.6q-51.2-51.2-51.2-136.534t51.2-136.534l272-273.068-68.266-68.268h-30.932q-94.932 0-168.532-73.6-65.066-65.068-72.534-149.866t46.934-138.134q46.932-48 120.534-48 93.868 0 168.534 73.6 41.6 42.668 60.266 95.466t11.2 101.866l69.332 70.4 69.332-70.4q-7.466-49.068 11.2-101.866t60.268-95.466q74.668-73.6 168.534-73.6 73.6 0 120.534 48 54.4 53.332 46.932 138.134t-72.534 149.866zM342.4 125.864q-12.8-28.8-36.266-51.732t-52.266-35.732q-25.6-11.732-51.2-11.732-36.266 0-57.068 20.8t-20.8 56q0 25.6 11.732 51.2 11.734 28.8 35.2 52.268t52.266 36.268q26.668 11.732 52.266 11.732 35.2 0 56.534-21.332t21.332-55.466q0-25.6-11.734-52.268zM512 316.798q-39.466 0-67.734 28.268t-28.266 68.268 28.266 68.266 67.734 28.266 67.732-28.266 28.268-68.266-28.268-68.268-67.734-28.268zM878.4 47.464q-20.8-20.8-57.068-20.8-25.6 0-51.2 11.732-28.8 12.8-52.268 35.732t-36.268 51.732q-11.732 26.668-11.732 52.268 0 34.134 21.332 55.466t56.534 21.332q25.6 0 51.2-11.732 29.866-12.8 53.332-36.268t35.2-52.268q11.732-25.6 11.732-51.2 0-35.2-20.8-56z" />
<glyph unicode="&#xf201c;" glyph-name="uniF201C" d="M948.992 884.99c-99.872 100-262.112 100-361.984 0l-586.016-585.984-0.992-363.008h361.984l587.008 587.008c100 100 100 261.984 0 361.984zM307.616 63.998h-180.992v182.016c49.984 49.984 131.008 49.984 180.992 0s50.016-132.032 0-182.016zM856.128 613.502l-180.992 180.992c49.984 49.984 131.008 49.984 180.992 0s49.984-131.008 0-180.992z" />
<glyph unicode="&#xf201d;" glyph-name="uniF201D" d="M384 319.998l128 64 448 448-64 64-448-448-64-128zM289.3 92.902c-31.632 66.726-65.666 100.76-132.396 132.394l99.094 272.79 128 77.912 384 384h-192l-384-384-192-640 640 192 384 384v192l-384-384-77.914-128z" />
<glyph unicode="&#xf201e;" glyph-name="uniF201E" d="M948.992 884.99c-49.856 50.016-115.36 75.008-180.992 75.008-65.504 0-131.008-24.992-180.992-75.008l-586.016-585.984-0.992-363.008h361.984l587.008 587.008c100 100 100 261.984 0 361.984zM308.992 63.998h-52.992v128h-127.264l0.128 53.76 548.64 548.736 180.992-180.992-549.504-549.504z" />
<glyph unicode="&#xf201f;" glyph-name="uniF201F" d="M861.298 520.816q-13.654 0-22.754-9.67t-9.102-23.324v-406.188q0-32.996-22.188-56.89t-54.044-23.894h-591.644q-34.134 0-64.284 24.462t-30.15 56.32v593.92q0 31.858 30.72 60.87t63.716 29.014h337.92q13.652 0 23.324 9.102t9.672 22.754-9.672 22.754-23.324 9.102h-337.92q-65.99 0-112.070-44.374t-46.080-109.226v-593.92q0-63.716 45.512-104.106t112.64-40.39h591.644q64.852 0 102.4 39.254t37.548 105.246v406.188q0 13.654-9.102 23.324t-22.754 9.67zM992.142 880.354l-48.924 48.924q-27.308 27.308-68.836 27.308t-68.836-27.308l-92.16-108.088-488.108-467.628v-13.654l-61.44-208.212 45.51-39.822 196.836 69.404 2.274-1.138h9.102l466.488 489.246 108.088 88.748q28.446 28.444 28.446 71.11t-28.446 71.112zM250.312 177.206l29.582 92.16 56.89-58.028zM394.81 245.474l-84.194 84.196 435.77 434.63 81.92-81.92zM945.494 788.192l-64.852-65.99-94.434 95.574 64.852 64.852q10.24 9.102 23.326 9.102t23.326-9.102l47.788-48.926q10.24-9.102 10.24-22.754t-10.24-22.756z" />
<glyph unicode="&#xf2020;" glyph-name="uniF2020" d="M800.844 835.146l-15.778 15.776-428.412-429.626 141.996-141.996 396.858 396.858 8.496-7.282 33.982 32.768-134.712 134.712zM1022.938 802.378l-143.208 141.996-47.332-47.332 141.996-141.996zM309.324 373.966l-48.546-190.54 190.54 47.332zM917.352 382.462v-263.358q0-26.7-19.418-46.116t-47.332-19.418h-656.574q-26.7 0-46.116 19.418t-19.42 46.116v657.788q0 26.7 19.42 46.116t46.116 19.418h394.43v131.072h-394.43q-81.314 0-138.96-57.648t-57.648-138.96v-657.788q0-81.312 57.648-138.96t138.96-57.648h656.574q82.528 0 140.174 57.648t57.648 138.96v263.358h-131.072z" />
<glyph unicode="&#xf2021;" glyph-name="uniF2021" d="M896-64.002h-768q-53.002 0-90.502 37.5t-37.5 90.5v768q0 53 37.5 90t90.502 37h576l-128-127h-384q-27.002 0-45.498-19t-18.502-45v-640q0-27 19.002-45.5t45.002-18.5h640q27 0 45.5 18.5t18.5 45.5v384l128 128v-576q0-53-37.5-90.5t-90.5-37.5zM320 399.998l144-144-208-64zM528 303.998l-160 159 479 480q17 16 40.5 16t40.5-16l79-80q16-16 16.5-39.5t-16.5-40.5z" />
<glyph unicode="&#xf2022;" glyph-name="uniF2022" d="M960-64.002h-896c-35.344 0-64 28.624-64 64v896c0 35.376 28.656 64 64 64h640l-128-128h-448v-768h768v448l128 128v-640c0-35.376-28.656-64-64-64zM256 191.998v192l576 576h64l128-128v-64l-576-576h-192zM544 415.998l352 352-64 64-352-352 64-64zM384 383.998l-64-64v-64h64l64 64-64 64z" />
<glyph unicode="&#xf2023;" glyph-name="uniF2023" d="M507.428 283.426l66.286 66.286-86.856 86.856-66.286-66.286v-32h54.858v-54.856h32zM758.856 694.854q-9.144 9.144-18.856-0.57l-200-200q-9.714-9.714-0.572-18.858t18.856 0.572l200 200q9.714 9.714 0.572 18.856zM804.572 355.426v-108.572q0-68-48.286-116.286t-116.286-48.286h-475.428q-68 0-116.286 48.286t-48.286 116.286v475.428q0 68 48.286 116.286t116.286 48.286h475.428q36 0 66.856-14.286 8.572-4 10.286-13.142 1.714-9.714-5.144-16.572l-28-28q-8-8-18.286-4.572-13.144 3.428-25.714 3.428h-475.428q-37.714 0-64.57-26.856t-26.856-64.57v-475.43q0-37.714 26.856-64.572t64.57-26.856h475.428q37.714 0 64.572 26.856t26.856 64.572v72q0 7.428 5.144 12.572l36.572 36.572q8.572 8.572 20 4t11.428-16.572zM749.714 777.142l164.572-164.572-384-384h-164.572v164.572zM1003.428 701.712l-52.572-52.57-164.572 164.572 52.572 52.572q16 16 38.856 16t38.856-16l86.856-86.858q16-16 16-38.856t-16-38.856z" />
<glyph unicode="&#xf2024;" glyph-name="uniF2024" d="M416 831.998h96v-64h-96v64zM320 767.998h96v-64h-96v64zM416 703.998h96v-64h-96v64zM320 639.998h96v-64h-96v64zM416 575.998h96v-64h-96v64zM320 511.998h96v-64h-96v64zM416 447.998v-64h-96v-224q0-13 9.5-22.5t22.5-9.5h128q13 0 22.5 9.5t9.5 22.5v288h-96zM480 191.998h-128v64h128v-64zM903 760.998l-142 142q-24 24-64 40.5t-73 16.5h-480q-33 0-56.5-23.5t-23.5-56.5v-864q0-33 23.5-56.5t56.5-23.5h736q33 0 56.5 23.5t23.5 56.5v608q0 33-16.5 73t-40.5 64zM858 714.998q5-4 9-11h-163v163q7-4 11-9zM896 15.998q0-7-4.5-11.5t-11.5-4.5h-736q-7 0-11.5 4.5t-4.5 11.5v864q0 7 4.5 11.5t11.5 4.5h480q7 0 16-2v-254h254q2-9 2-16v-608z" />
</font>
</defs>
</svg>
